<mxfile host="app.diagrams.net" modified="2022-04-20T05:13:36.684Z" agent="5.0 (Windows NT 10.0; Win64; x64) AppleWebKit/537.36 (KHTML, like Gecko) Chrome/100.0.4896.88 Safari/537.36" etag="cUuJUlita0b09jxtjTWi" version="17.4.5" type="github">
  <diagram id="X9zZmPEaqtEekRVXDIqs" name="Page-1">
    <mxGraphModel dx="1116" dy="1587" grid="1" gridSize="10" guides="1" tooltips="1" connect="1" arrows="1" fold="1" page="1" pageScale="1" pageWidth="827" pageHeight="1169" math="0" shadow="0">
      <root>
        <mxCell id="0" />
        <mxCell id="1" parent="0" />
        <mxCell id="cfhEfqjK3iJdFm8jVArX-180" style="edgeStyle=orthogonalEdgeStyle;rounded=0;orthogonalLoop=1;jettySize=auto;html=1;" parent="1" source="rMOaj1iCE9mKYqQH6y1h-25" target="cfhEfqjK3iJdFm8jVArX-29" edge="1">
          <mxGeometry relative="1" as="geometry">
            <mxPoint x="2123.92" y="619.75" as="targetPoint" />
            <Array as="points">
              <mxPoint x="2045" y="230" />
            </Array>
            <mxPoint x="1670.9199999999996" y="499.75" as="sourcePoint" />
          </mxGeometry>
        </mxCell>
        <mxCell id="cfhEfqjK3iJdFm8jVArX-181" value="read_byte" style="edgeLabel;html=1;align=center;verticalAlign=middle;resizable=0;points=[];" parent="cfhEfqjK3iJdFm8jVArX-180" vertex="1" connectable="0">
          <mxGeometry x="0.926" y="1" relative="1" as="geometry">
            <mxPoint y="5" as="offset" />
          </mxGeometry>
        </mxCell>
        <mxCell id="yGvOkxiand3LqxDzhhp--21" style="edgeStyle=orthogonalEdgeStyle;rounded=0;orthogonalLoop=1;jettySize=auto;html=1;entryX=0.5;entryY=0;entryDx=0;entryDy=0;strokeColor=#000000;startArrow=none;exitX=0.973;exitY=0.385;exitDx=0;exitDy=0;exitPerimeter=0;" parent="1" edge="1">
          <mxGeometry relative="1" as="geometry">
            <mxPoint x="1660.0299999999993" y="276.91839999999974" as="sourcePoint" />
            <mxPoint x="2262.84" y="403.43" as="targetPoint" />
            <Array as="points">
              <mxPoint x="1660.19" y="282.18" />
              <mxPoint x="2263.19" y="282.18" />
            </Array>
          </mxGeometry>
        </mxCell>
        <mxCell id="yGvOkxiand3LqxDzhhp--22" value="read_byte" style="edgeLabel;html=1;align=center;verticalAlign=middle;resizable=0;points=[];" parent="yGvOkxiand3LqxDzhhp--21" vertex="1" connectable="0">
          <mxGeometry x="0.9147" y="-1" relative="1" as="geometry">
            <mxPoint x="-9" y="-156" as="offset" />
          </mxGeometry>
        </mxCell>
        <mxCell id="FoXIpUmqEEeSf2nbtVqf-2" value="b4" style="endArrow=classic;html=1;rounded=0;entryX=0.5;entryY=1;entryDx=0;entryDy=0;strokeColor=#FF0000;" parent="1" edge="1">
          <mxGeometry x="-1" y="1" width="50" height="50" relative="1" as="geometry">
            <mxPoint x="680.79" y="1120.25" as="sourcePoint" />
            <mxPoint x="679.9950000000001" y="700.25" as="targetPoint" />
            <mxPoint as="offset" />
          </mxGeometry>
        </mxCell>
        <mxCell id="FoXIpUmqEEeSf2nbtVqf-1" value="b1" style="endArrow=classic;html=1;rounded=0;entryX=0.5;entryY=1;entryDx=0;entryDy=0;strokeColor=#FF0000;" parent="1" target="cfhEfqjK3iJdFm8jVArX-12" edge="1">
          <mxGeometry x="-1" y="1" width="50" height="50" relative="1" as="geometry">
            <mxPoint x="650" y="1120" as="sourcePoint" />
            <mxPoint x="414.33000000000004" y="1250" as="targetPoint" />
            <mxPoint as="offset" />
          </mxGeometry>
        </mxCell>
        <mxCell id="MGpwRtADwgVNTOVfMMKY-62" style="edgeStyle=orthogonalEdgeStyle;rounded=0;orthogonalLoop=1;jettySize=auto;html=1;entryX=0.622;entryY=1.017;entryDx=0;entryDy=0;entryPerimeter=0;strokeColor=#97D077;" parent="1" source="cfhEfqjK3iJdFm8jVArX-2" target="MGpwRtADwgVNTOVfMMKY-40" edge="1">
          <mxGeometry relative="1" as="geometry">
            <Array as="points">
              <mxPoint x="450" y="570" />
              <mxPoint x="450" y="910" />
              <mxPoint x="880" y="910" />
            </Array>
          </mxGeometry>
        </mxCell>
        <mxCell id="MGpwRtADwgVNTOVfMMKY-64" value="ifid_reg_b" style="edgeLabel;html=1;align=center;verticalAlign=middle;resizable=0;points=[];" parent="MGpwRtADwgVNTOVfMMKY-62" vertex="1" connectable="0">
          <mxGeometry x="0.9337" y="-3" relative="1" as="geometry">
            <mxPoint y="-9" as="offset" />
          </mxGeometry>
        </mxCell>
        <mxCell id="MGpwRtADwgVNTOVfMMKY-66" value="insn[7:4]" style="edgeLabel;html=1;align=center;verticalAlign=middle;resizable=0;points=[];" parent="MGpwRtADwgVNTOVfMMKY-62" vertex="1" connectable="0">
          <mxGeometry x="0.9068" y="1" relative="1" as="geometry">
            <mxPoint x="1" y="10" as="offset" />
          </mxGeometry>
        </mxCell>
        <mxCell id="MGpwRtADwgVNTOVfMMKY-61" style="edgeStyle=orthogonalEdgeStyle;rounded=0;orthogonalLoop=1;jettySize=auto;html=1;entryX=0.25;entryY=1;entryDx=0;entryDy=0;strokeColor=#97D077;" parent="1" source="cfhEfqjK3iJdFm8jVArX-2" target="MGpwRtADwgVNTOVfMMKY-40" edge="1">
          <mxGeometry relative="1" as="geometry">
            <Array as="points">
              <mxPoint x="450" y="570" />
              <mxPoint x="450" y="910" />
              <mxPoint x="826" y="910" />
            </Array>
          </mxGeometry>
        </mxCell>
        <mxCell id="MGpwRtADwgVNTOVfMMKY-63" value="ifid_reg_a" style="edgeLabel;html=1;align=center;verticalAlign=middle;resizable=0;points=[];" parent="MGpwRtADwgVNTOVfMMKY-61" vertex="1" connectable="0">
          <mxGeometry x="0.9324" relative="1" as="geometry">
            <mxPoint x="-6" y="-6" as="offset" />
          </mxGeometry>
        </mxCell>
        <mxCell id="MGpwRtADwgVNTOVfMMKY-65" value="insn[11:8]" style="edgeLabel;html=1;align=center;verticalAlign=middle;resizable=0;points=[];" parent="MGpwRtADwgVNTOVfMMKY-61" vertex="1" connectable="0">
          <mxGeometry x="0.8688" y="1" relative="1" as="geometry">
            <mxPoint y="11" as="offset" />
          </mxGeometry>
        </mxCell>
        <mxCell id="MGpwRtADwgVNTOVfMMKY-59" style="edgeStyle=orthogonalEdgeStyle;rounded=0;orthogonalLoop=1;jettySize=auto;html=1;strokeColor=#97D077;" parent="1" source="rMOaj1iCE9mKYqQH6y1h-25" target="MGpwRtADwgVNTOVfMMKY-40" edge="1">
          <mxGeometry relative="1" as="geometry">
            <Array as="points">
              <mxPoint x="1710" y="600" />
              <mxPoint x="1710" y="910" />
              <mxPoint x="1010" y="910" />
              <mxPoint x="1010" y="830" />
            </Array>
            <mxPoint x="1502.6499999999996" y="680" as="sourcePoint" />
          </mxGeometry>
        </mxCell>
        <mxCell id="MGpwRtADwgVNTOVfMMKY-60" value="exmem_&lt;br&gt;forwarded&lt;br&gt;_write_register" style="edgeLabel;html=1;align=center;verticalAlign=middle;resizable=0;points=[];" parent="MGpwRtADwgVNTOVfMMKY-59" vertex="1" connectable="0">
          <mxGeometry x="0.8999" y="-2" relative="1" as="geometry">
            <mxPoint x="-7" y="22" as="offset" />
          </mxGeometry>
        </mxCell>
        <mxCell id="MGpwRtADwgVNTOVfMMKY-56" style="edgeStyle=orthogonalEdgeStyle;rounded=0;orthogonalLoop=1;jettySize=auto;html=1;entryX=1;entryY=0.25;entryDx=0;entryDy=0;strokeColor=#97D077;" parent="1" source="rMOaj1iCE9mKYqQH6y1h-25" target="MGpwRtADwgVNTOVfMMKY-40" edge="1">
          <mxGeometry relative="1" as="geometry">
            <mxPoint x="1503.58" y="700.0899199999999" as="sourcePoint" />
            <Array as="points">
              <mxPoint x="1690" y="610" />
              <mxPoint x="1690" y="890" />
              <mxPoint x="1020" y="890" />
              <mxPoint x="1020" y="810" />
            </Array>
          </mxGeometry>
        </mxCell>
        <mxCell id="MGpwRtADwgVNTOVfMMKY-58" value="exmem_reg_write" style="edgeLabel;html=1;align=center;verticalAlign=middle;resizable=0;points=[];" parent="MGpwRtADwgVNTOVfMMKY-56" vertex="1" connectable="0">
          <mxGeometry x="0.9229" y="-2" relative="1" as="geometry">
            <mxPoint x="11" y="-8" as="offset" />
          </mxGeometry>
        </mxCell>
        <mxCell id="MGpwRtADwgVNTOVfMMKY-20" style="edgeStyle=orthogonalEdgeStyle;rounded=0;orthogonalLoop=1;jettySize=auto;html=1;entryX=0;entryY=0.25;entryDx=0;entryDy=0;strokeColor=#97D077;" parent="1" source="MGpwRtADwgVNTOVfMMKY-16" target="MGpwRtADwgVNTOVfMMKY-10" edge="1">
          <mxGeometry relative="1" as="geometry">
            <Array as="points">
              <mxPoint x="800" y="390" />
              <mxPoint x="800" y="-10" />
              <mxPoint x="208" y="-10" />
              <mxPoint x="208" y="206" />
            </Array>
          </mxGeometry>
        </mxCell>
        <mxCell id="PYuLqpD3J3IwYi2mhqxB-1" value="" style="endArrow=classic;html=1;rounded=0;entryX=0;entryY=0.5;entryDx=0;entryDy=0;" parent="1" target="cfhEfqjK3iJdFm8jVArX-14" edge="1">
          <mxGeometry width="50" height="50" relative="1" as="geometry">
            <mxPoint x="1103" y="1030" as="sourcePoint" />
            <mxPoint x="1122.65" y="362.59000000000003" as="targetPoint" />
            <Array as="points">
              <mxPoint x="1102.65" y="427" />
            </Array>
          </mxGeometry>
        </mxCell>
        <mxCell id="PYuLqpD3J3IwYi2mhqxB-2" value="write_data" style="edgeLabel;html=1;align=center;verticalAlign=middle;resizable=0;points=[];" parent="PYuLqpD3J3IwYi2mhqxB-1" vertex="1" connectable="0">
          <mxGeometry x="0.8431" y="-1" relative="1" as="geometry">
            <mxPoint as="offset" />
          </mxGeometry>
        </mxCell>
        <mxCell id="cfhEfqjK3iJdFm8jVArX-40" style="edgeStyle=orthogonalEdgeStyle;rounded=0;orthogonalLoop=1;jettySize=auto;html=1;" parent="1" source="cfhEfqjK3iJdFm8jVArX-1" edge="1">
          <mxGeometry relative="1" as="geometry">
            <mxPoint x="400" y="570" as="targetPoint" />
            <Array as="points">
              <mxPoint x="400" y="570" />
            </Array>
          </mxGeometry>
        </mxCell>
        <mxCell id="FoXIpUmqEEeSf2nbtVqf-7" style="edgeStyle=orthogonalEdgeStyle;rounded=0;orthogonalLoop=1;jettySize=auto;html=1;strokeColor=#FF0000;" parent="1" edge="1">
          <mxGeometry relative="1" as="geometry">
            <Array as="points">
              <mxPoint x="190" y="520" />
            </Array>
            <mxPoint x="187" y="520" as="sourcePoint" />
            <mxPoint x="190" y="-70" as="targetPoint" />
          </mxGeometry>
        </mxCell>
        <mxCell id="FoXIpUmqEEeSf2nbtVqf-8" value="busy" style="edgeLabel;html=1;align=center;verticalAlign=middle;resizable=0;points=[];" parent="FoXIpUmqEEeSf2nbtVqf-7" vertex="1" connectable="0">
          <mxGeometry x="0.6848" relative="1" as="geometry">
            <mxPoint y="-108" as="offset" />
          </mxGeometry>
        </mxCell>
        <mxCell id="cfhEfqjK3iJdFm8jVArX-1" value="insn_mem" style="whiteSpace=wrap;html=1;aspect=fixed;" parent="1" vertex="1">
          <mxGeometry x="260" y="530" width="80" height="80" as="geometry" />
        </mxCell>
        <mxCell id="cfhEfqjK3iJdFm8jVArX-44" style="edgeStyle=orthogonalEdgeStyle;rounded=0;orthogonalLoop=1;jettySize=auto;html=1;entryX=0;entryY=0.5;entryDx=0;entryDy=0;" parent="1" source="cfhEfqjK3iJdFm8jVArX-2" target="cfhEfqjK3iJdFm8jVArX-6" edge="1">
          <mxGeometry relative="1" as="geometry">
            <Array as="points">
              <mxPoint x="450" y="570" />
              <mxPoint x="450" y="810" />
            </Array>
          </mxGeometry>
        </mxCell>
        <mxCell id="cfhEfqjK3iJdFm8jVArX-45" value="insn[3:0]" style="edgeLabel;html=1;align=center;verticalAlign=middle;resizable=0;points=[];" parent="cfhEfqjK3iJdFm8jVArX-44" vertex="1" connectable="0">
          <mxGeometry x="0.6941" relative="1" as="geometry">
            <mxPoint x="34" y="10" as="offset" />
          </mxGeometry>
        </mxCell>
        <mxCell id="cfhEfqjK3iJdFm8jVArX-46" style="edgeStyle=orthogonalEdgeStyle;rounded=0;orthogonalLoop=1;jettySize=auto;html=1;entryX=0;entryY=0.5;entryDx=0;entryDy=0;" parent="1" source="cfhEfqjK3iJdFm8jVArX-2" target="cfhEfqjK3iJdFm8jVArX-7" edge="1">
          <mxGeometry relative="1" as="geometry">
            <Array as="points">
              <mxPoint x="450" y="570" />
              <mxPoint x="450" y="296" />
            </Array>
          </mxGeometry>
        </mxCell>
        <mxCell id="cfhEfqjK3iJdFm8jVArX-47" value="insn[15:12]" style="edgeLabel;html=1;align=center;verticalAlign=middle;resizable=0;points=[];" parent="cfhEfqjK3iJdFm8jVArX-46" vertex="1" connectable="0">
          <mxGeometry x="0.827" relative="1" as="geometry">
            <mxPoint x="8" y="42" as="offset" />
          </mxGeometry>
        </mxCell>
        <mxCell id="cfhEfqjK3iJdFm8jVArX-48" style="edgeStyle=orthogonalEdgeStyle;rounded=0;orthogonalLoop=1;jettySize=auto;html=1;entryX=0;entryY=0.25;entryDx=0;entryDy=0;" parent="1" target="cfhEfqjK3iJdFm8jVArX-8" edge="1">
          <mxGeometry relative="1" as="geometry">
            <mxPoint x="450" y="470" as="sourcePoint" />
            <Array as="points">
              <mxPoint x="498" y="470" />
              <mxPoint x="498" y="444" />
            </Array>
          </mxGeometry>
        </mxCell>
        <mxCell id="cfhEfqjK3iJdFm8jVArX-51" value="insn[7:4]" style="edgeLabel;html=1;align=center;verticalAlign=middle;resizable=0;points=[];" parent="cfhEfqjK3iJdFm8jVArX-48" vertex="1" connectable="0">
          <mxGeometry x="0.6115" y="1" relative="1" as="geometry">
            <mxPoint x="-6" y="-7" as="offset" />
          </mxGeometry>
        </mxCell>
        <mxCell id="cfhEfqjK3iJdFm8jVArX-49" style="edgeStyle=orthogonalEdgeStyle;rounded=0;orthogonalLoop=1;jettySize=auto;html=1;entryX=0;entryY=0.75;entryDx=0;entryDy=0;" parent="1" target="cfhEfqjK3iJdFm8jVArX-8" edge="1">
          <mxGeometry relative="1" as="geometry">
            <mxPoint x="440" y="570" as="sourcePoint" />
            <Array as="points">
              <mxPoint x="450" y="570" />
              <mxPoint x="450" y="470" />
              <mxPoint x="498" y="470" />
              <mxPoint x="498" y="488" />
            </Array>
          </mxGeometry>
        </mxCell>
        <mxCell id="cfhEfqjK3iJdFm8jVArX-52" value="insn[3:0]" style="edgeLabel;html=1;align=center;verticalAlign=middle;resizable=0;points=[];" parent="cfhEfqjK3iJdFm8jVArX-49" vertex="1" connectable="0">
          <mxGeometry x="0.4727" y="3" relative="1" as="geometry">
            <mxPoint x="31" y="-4" as="offset" />
          </mxGeometry>
        </mxCell>
        <mxCell id="cfhEfqjK3iJdFm8jVArX-54" style="edgeStyle=orthogonalEdgeStyle;rounded=0;orthogonalLoop=1;jettySize=auto;html=1;" parent="1" target="cfhEfqjK3iJdFm8jVArX-60" edge="1">
          <mxGeometry relative="1" as="geometry">
            <mxPoint x="450" y="570" as="sourcePoint" />
            <Array as="points">
              <mxPoint x="450" y="555" />
            </Array>
          </mxGeometry>
        </mxCell>
        <mxCell id="cfhEfqjK3iJdFm8jVArX-58" value="insn[11:8]" style="edgeLabel;html=1;align=center;verticalAlign=middle;resizable=0;points=[];" parent="cfhEfqjK3iJdFm8jVArX-54" vertex="1" connectable="0">
          <mxGeometry x="0.3411" y="-1" relative="1" as="geometry">
            <mxPoint as="offset" />
          </mxGeometry>
        </mxCell>
        <mxCell id="cfhEfqjK3iJdFm8jVArX-57" style="edgeStyle=orthogonalEdgeStyle;rounded=0;orthogonalLoop=1;jettySize=auto;html=1;" parent="1" target="cfhEfqjK3iJdFm8jVArX-61" edge="1">
          <mxGeometry relative="1" as="geometry">
            <mxPoint x="450" y="591" as="sourcePoint" />
            <Array as="points" />
          </mxGeometry>
        </mxCell>
        <mxCell id="cfhEfqjK3iJdFm8jVArX-59" value="insn[7:4]" style="edgeLabel;html=1;align=center;verticalAlign=middle;resizable=0;points=[];" parent="cfhEfqjK3iJdFm8jVArX-57" vertex="1" connectable="0">
          <mxGeometry x="0.2451" relative="1" as="geometry">
            <mxPoint as="offset" />
          </mxGeometry>
        </mxCell>
        <mxCell id="yGvOkxiand3LqxDzhhp--10" style="edgeStyle=orthogonalEdgeStyle;rounded=0;orthogonalLoop=1;jettySize=auto;html=1;entryX=-0.02;entryY=0.834;entryDx=0;entryDy=0;strokeColor=#FF711F;entryPerimeter=0;" parent="1" source="cfhEfqjK3iJdFm8jVArX-2" target="yGvOkxiand3LqxDzhhp--1" edge="1">
          <mxGeometry relative="1" as="geometry">
            <Array as="points">
              <mxPoint x="440" y="280" />
              <mxPoint x="440" y="88" />
            </Array>
          </mxGeometry>
        </mxCell>
        <mxCell id="yGvOkxiand3LqxDzhhp--11" value="ifid.insn[7:4]" style="edgeLabel;html=1;align=center;verticalAlign=middle;resizable=0;points=[];" parent="yGvOkxiand3LqxDzhhp--10" vertex="1" connectable="0">
          <mxGeometry x="0.517" relative="1" as="geometry">
            <mxPoint x="26" y="-6" as="offset" />
          </mxGeometry>
        </mxCell>
        <mxCell id="1z0MUqi8JcwUg6FFa3D3-2" style="edgeStyle=orthogonalEdgeStyle;rounded=0;orthogonalLoop=1;jettySize=auto;html=1;entryX=0.602;entryY=1.007;entryDx=0;entryDy=0;entryPerimeter=0;strokeColor=#FF8000;exitX=0.886;exitY=0.026;exitDx=0;exitDy=0;exitPerimeter=0;" parent="1" source="cfhEfqjK3iJdFm8jVArX-2" target="yGvOkxiand3LqxDzhhp--1" edge="1">
          <mxGeometry relative="1" as="geometry">
            <Array as="points">
              <mxPoint x="430" y="282" />
              <mxPoint x="430" y="280" />
              <mxPoint x="440" y="280" />
              <mxPoint x="440" y="210" />
              <mxPoint x="556" y="210" />
            </Array>
          </mxGeometry>
        </mxCell>
        <mxCell id="MGpwRtADwgVNTOVfMMKY-17" style="edgeStyle=orthogonalEdgeStyle;rounded=0;orthogonalLoop=1;jettySize=auto;html=1;strokeColor=#97D077;" parent="1" source="cfhEfqjK3iJdFm8jVArX-2" target="MGpwRtADwgVNTOVfMMKY-16" edge="1">
          <mxGeometry relative="1" as="geometry">
            <Array as="points">
              <mxPoint x="540" y="420" />
              <mxPoint x="540" y="360" />
            </Array>
          </mxGeometry>
        </mxCell>
        <mxCell id="cfhEfqjK3iJdFm8jVArX-2" value="if-id" style="rounded=0;whiteSpace=wrap;html=1;" parent="1" vertex="1">
          <mxGeometry x="400" y="117.99999999999997" width="30" height="712" as="geometry" />
        </mxCell>
        <mxCell id="cfhEfqjK3iJdFm8jVArX-35" style="edgeStyle=orthogonalEdgeStyle;rounded=0;orthogonalLoop=1;jettySize=auto;html=1;entryX=0;entryY=0.5;entryDx=0;entryDy=0;" parent="1" source="cfhEfqjK3iJdFm8jVArX-4" target="cfhEfqjK3iJdFm8jVArX-1" edge="1">
          <mxGeometry relative="1" as="geometry" />
        </mxCell>
        <mxCell id="cfhEfqjK3iJdFm8jVArX-37" style="edgeStyle=orthogonalEdgeStyle;rounded=0;orthogonalLoop=1;jettySize=auto;html=1;entryX=0.187;entryY=1;entryDx=0;entryDy=0;entryPerimeter=0;" parent="1" source="cfhEfqjK3iJdFm8jVArX-4" target="cfhEfqjK3iJdFm8jVArX-21" edge="1">
          <mxGeometry relative="1" as="geometry">
            <Array as="points">
              <mxPoint x="230" y="570" />
              <mxPoint x="230" y="387" />
            </Array>
          </mxGeometry>
        </mxCell>
        <mxCell id="cfhEfqjK3iJdFm8jVArX-4" value="pc" style="rounded=0;whiteSpace=wrap;html=1;" parent="1" vertex="1">
          <mxGeometry x="150" y="522.25" width="50" height="95" as="geometry" />
        </mxCell>
        <mxCell id="cfhEfqjK3iJdFm8jVArX-87" style="edgeStyle=orthogonalEdgeStyle;rounded=0;orthogonalLoop=1;jettySize=auto;html=1;entryX=-0.015;entryY=0.939;entryDx=0;entryDy=0;entryPerimeter=0;" parent="1" source="cfhEfqjK3iJdFm8jVArX-6" edge="1">
          <mxGeometry relative="1" as="geometry">
            <Array as="points">
              <mxPoint x="760" y="810" />
              <mxPoint x="760" y="701" />
            </Array>
            <mxPoint x="1052.2000000000003" y="700.5697600000003" as="targetPoint" />
          </mxGeometry>
        </mxCell>
        <mxCell id="cfhEfqjK3iJdFm8jVArX-88" value="immed" style="edgeLabel;html=1;align=center;verticalAlign=middle;resizable=0;points=[];" parent="cfhEfqjK3iJdFm8jVArX-87" vertex="1" connectable="0">
          <mxGeometry x="-0.6151" y="2" relative="1" as="geometry">
            <mxPoint x="-25" y="29" as="offset" />
          </mxGeometry>
        </mxCell>
        <mxCell id="MGpwRtADwgVNTOVfMMKY-19" style="edgeStyle=orthogonalEdgeStyle;rounded=0;orthogonalLoop=1;jettySize=auto;html=1;entryX=0.696;entryY=1.018;entryDx=0;entryDy=0;entryPerimeter=0;strokeColor=#97D077;" parent="1" target="MGpwRtADwgVNTOVfMMKY-16" edge="1">
          <mxGeometry relative="1" as="geometry">
            <mxPoint x="730" y="810" as="sourcePoint" />
            <Array as="points">
              <mxPoint x="730" y="810" />
              <mxPoint x="730" y="770" />
              <mxPoint x="700" y="770" />
              <mxPoint x="700" y="405" />
            </Array>
          </mxGeometry>
        </mxCell>
        <mxCell id="cfhEfqjK3iJdFm8jVArX-6" value="sign_extend" style="ellipse;whiteSpace=wrap;html=1;" parent="1" vertex="1">
          <mxGeometry x="580" y="770" width="120" height="80" as="geometry" />
        </mxCell>
        <mxCell id="cfhEfqjK3iJdFm8jVArX-62" style="edgeStyle=orthogonalEdgeStyle;rounded=0;orthogonalLoop=1;jettySize=auto;html=1;" parent="1" source="cfhEfqjK3iJdFm8jVArX-7" target="cfhEfqjK3iJdFm8jVArX-8" edge="1">
          <mxGeometry relative="1" as="geometry">
            <Array as="points">
              <mxPoint x="579" y="296" />
            </Array>
          </mxGeometry>
        </mxCell>
        <mxCell id="cfhEfqjK3iJdFm8jVArX-63" value="reg_dst" style="edgeLabel;html=1;align=center;verticalAlign=middle;resizable=0;points=[];" parent="cfhEfqjK3iJdFm8jVArX-62" vertex="1" connectable="0">
          <mxGeometry x="0.4854" y="-3" relative="1" as="geometry">
            <mxPoint as="offset" />
          </mxGeometry>
        </mxCell>
        <mxCell id="MGpwRtADwgVNTOVfMMKY-11" style="edgeStyle=orthogonalEdgeStyle;rounded=0;orthogonalLoop=1;jettySize=auto;html=1;entryX=0.5;entryY=0;entryDx=0;entryDy=0;strokeColor=#97D077;" parent="1" source="cfhEfqjK3iJdFm8jVArX-7" target="MGpwRtADwgVNTOVfMMKY-10" edge="1">
          <mxGeometry relative="1" as="geometry">
            <Array as="points">
              <mxPoint x="524" y="10" />
              <mxPoint x="240" y="10" />
            </Array>
          </mxGeometry>
        </mxCell>
        <mxCell id="MGpwRtADwgVNTOVfMMKY-12" value="if.flush" style="edgeStyle=orthogonalEdgeStyle;rounded=0;orthogonalLoop=1;jettySize=auto;html=1;entryX=0.5;entryY=1;entryDx=0;entryDy=0;strokeColor=#97D077;" parent="1" source="cfhEfqjK3iJdFm8jVArX-7" target="cfhEfqjK3iJdFm8jVArX-2" edge="1">
          <mxGeometry x="-0.6206" relative="1" as="geometry">
            <Array as="points">
              <mxPoint x="540" y="-30" />
              <mxPoint x="80" y="-30" />
              <mxPoint x="80" y="860" />
              <mxPoint x="415" y="860" />
            </Array>
            <mxPoint as="offset" />
          </mxGeometry>
        </mxCell>
        <mxCell id="MGpwRtADwgVNTOVfMMKY-13" value="if.flush" style="edgeLabel;html=1;align=center;verticalAlign=middle;resizable=0;points=[];" parent="MGpwRtADwgVNTOVfMMKY-12" vertex="1" connectable="0">
          <mxGeometry x="0.934" y="2" relative="1" as="geometry">
            <mxPoint as="offset" />
          </mxGeometry>
        </mxCell>
        <mxCell id="rMOaj1iCE9mKYqQH6y1h-27" style="edgeStyle=orthogonalEdgeStyle;rounded=0;orthogonalLoop=1;jettySize=auto;html=1;" parent="1" source="cfhEfqjK3iJdFm8jVArX-7" target="rMOaj1iCE9mKYqQH6y1h-58" edge="1">
          <mxGeometry relative="1" as="geometry">
            <mxPoint x="950" y="296.25" as="targetPoint" />
            <Array as="points">
              <mxPoint x="950" y="296" />
              <mxPoint x="950" y="296" />
            </Array>
          </mxGeometry>
        </mxCell>
        <mxCell id="rMOaj1iCE9mKYqQH6y1h-28" value="ctr_signals" style="edgeLabel;html=1;align=center;verticalAlign=middle;resizable=0;points=[];" parent="rMOaj1iCE9mKYqQH6y1h-27" vertex="1" connectable="0">
          <mxGeometry x="0.7531" y="-2" relative="1" as="geometry">
            <mxPoint as="offset" />
          </mxGeometry>
        </mxCell>
        <mxCell id="cfhEfqjK3iJdFm8jVArX-7" value="ctr_unit" style="ellipse;whiteSpace=wrap;html=1;rotation=0;fillColor=#ffe6cc;strokeColor=#d79b00;" parent="1" vertex="1">
          <mxGeometry x="480.5" y="240" width="87.5" height="112.5" as="geometry" />
        </mxCell>
        <mxCell id="cfhEfqjK3iJdFm8jVArX-8" value="m&lt;br&gt;u&lt;br&gt;x" style="rounded=1;whiteSpace=wrap;html=1;" parent="1" vertex="1">
          <mxGeometry x="567.5" y="422.59" width="25" height="87.41" as="geometry" />
        </mxCell>
        <mxCell id="cfhEfqjK3iJdFm8jVArX-227" style="edgeStyle=orthogonalEdgeStyle;rounded=0;orthogonalLoop=1;jettySize=auto;html=1;" parent="1" source="cfhEfqjK3iJdFm8jVArX-9" target="cfhEfqjK3iJdFm8jVArX-226" edge="1">
          <mxGeometry relative="1" as="geometry" />
        </mxCell>
        <mxCell id="cfhEfqjK3iJdFm8jVArX-9" value="mux_reg_dst" style="text;html=1;strokeColor=none;fillColor=none;align=center;verticalAlign=middle;whiteSpace=wrap;rounded=0;rotation=90;" parent="1" vertex="1">
          <mxGeometry x="508" y="659.96" width="60" height="9.92" as="geometry" />
        </mxCell>
        <mxCell id="cfhEfqjK3iJdFm8jVArX-10" value="m&lt;br&gt;u&lt;br&gt;x" style="rounded=1;whiteSpace=wrap;html=1;" parent="1" vertex="1">
          <mxGeometry x="502.79" y="629.8399999999999" width="25" height="70.16" as="geometry" />
        </mxCell>
        <mxCell id="cfhEfqjK3iJdFm8jVArX-83" style="edgeStyle=orthogonalEdgeStyle;rounded=0;orthogonalLoop=1;jettySize=auto;html=1;" parent="1" edge="1">
          <mxGeometry relative="1" as="geometry">
            <Array as="points">
              <mxPoint x="733" y="540" />
              <mxPoint x="780" y="540" />
              <mxPoint x="780" y="500" />
            </Array>
            <mxPoint x="730" y="540" as="sourcePoint" />
            <mxPoint x="1052" y="500" as="targetPoint" />
          </mxGeometry>
        </mxCell>
        <mxCell id="cfhEfqjK3iJdFm8jVArX-84" value="data_a" style="edgeLabel;html=1;align=center;verticalAlign=middle;resizable=0;points=[];" parent="cfhEfqjK3iJdFm8jVArX-83" vertex="1" connectable="0">
          <mxGeometry x="0.1875" y="-1" relative="1" as="geometry">
            <mxPoint x="-84" y="7" as="offset" />
          </mxGeometry>
        </mxCell>
        <mxCell id="cfhEfqjK3iJdFm8jVArX-85" style="edgeStyle=orthogonalEdgeStyle;rounded=0;orthogonalLoop=1;jettySize=auto;html=1;exitX=1;exitY=0.201;exitDx=0;exitDy=0;exitPerimeter=0;entryX=0.023;entryY=0.565;entryDx=0;entryDy=0;entryPerimeter=0;" parent="1" source="cfhEfqjK3iJdFm8jVArX-12" edge="1">
          <mxGeometry relative="1" as="geometry">
            <Array as="points">
              <mxPoint x="800" y="565" />
              <mxPoint x="800" y="520" />
              <mxPoint x="1052" y="520" />
              <mxPoint x="1052" y="521" />
            </Array>
            <mxPoint x="1053.3400000000001" y="521.1095999999998" as="targetPoint" />
          </mxGeometry>
        </mxCell>
        <mxCell id="cfhEfqjK3iJdFm8jVArX-86" value="data_b" style="edgeLabel;html=1;align=center;verticalAlign=middle;resizable=0;points=[];" parent="cfhEfqjK3iJdFm8jVArX-85" vertex="1" connectable="0">
          <mxGeometry x="0.1607" y="-1" relative="1" as="geometry">
            <mxPoint x="-63" y="9" as="offset" />
          </mxGeometry>
        </mxCell>
        <mxCell id="MGpwRtADwgVNTOVfMMKY-38" style="edgeStyle=orthogonalEdgeStyle;rounded=0;orthogonalLoop=1;jettySize=auto;html=1;entryX=0;entryY=0.25;entryDx=0;entryDy=0;strokeColor=#97D077;exitX=1.001;exitY=0.202;exitDx=0;exitDy=0;exitPerimeter=0;" parent="1" source="cfhEfqjK3iJdFm8jVArX-12" target="MGpwRtADwgVNTOVfMMKY-26" edge="1">
          <mxGeometry relative="1" as="geometry">
            <Array as="points">
              <mxPoint x="750" y="566" />
              <mxPoint x="750" y="648" />
            </Array>
          </mxGeometry>
        </mxCell>
        <mxCell id="MGpwRtADwgVNTOVfMMKY-50" value="data_b" style="edgeLabel;html=1;align=center;verticalAlign=middle;resizable=0;points=[];" parent="MGpwRtADwgVNTOVfMMKY-38" vertex="1" connectable="0">
          <mxGeometry x="0.689" y="1" relative="1" as="geometry">
            <mxPoint x="-1" y="1" as="offset" />
          </mxGeometry>
        </mxCell>
        <mxCell id="MGpwRtADwgVNTOVfMMKY-39" style="edgeStyle=orthogonalEdgeStyle;rounded=0;orthogonalLoop=1;jettySize=auto;html=1;entryX=0;entryY=0.25;entryDx=0;entryDy=0;strokeColor=#97D077;" parent="1" source="cfhEfqjK3iJdFm8jVArX-12" target="MGpwRtADwgVNTOVfMMKY-25" edge="1">
          <mxGeometry relative="1" as="geometry">
            <Array as="points">
              <mxPoint x="770" y="540" />
              <mxPoint x="770" y="570" />
            </Array>
          </mxGeometry>
        </mxCell>
        <mxCell id="MGpwRtADwgVNTOVfMMKY-49" value="data_a" style="edgeLabel;html=1;align=center;verticalAlign=middle;resizable=0;points=[];" parent="MGpwRtADwgVNTOVfMMKY-39" vertex="1" connectable="0">
          <mxGeometry x="0.6601" y="2" relative="1" as="geometry">
            <mxPoint as="offset" />
          </mxGeometry>
        </mxCell>
        <mxCell id="cfhEfqjK3iJdFm8jVArX-12" value="reg_file" style="whiteSpace=wrap;html=1;aspect=fixed;" parent="1" vertex="1">
          <mxGeometry x="565" y="531.5899999999999" width="168.41" height="168.41" as="geometry" />
        </mxCell>
        <mxCell id="cfhEfqjK3iJdFm8jVArX-97" style="edgeStyle=orthogonalEdgeStyle;rounded=0;orthogonalLoop=1;jettySize=auto;html=1;entryX=0;entryY=0.25;entryDx=0;entryDy=0;" parent="1" target="cfhEfqjK3iJdFm8jVArX-14" edge="1">
          <mxGeometry relative="1" as="geometry">
            <Array as="points">
              <mxPoint x="1102.65" y="406" />
              <mxPoint x="1102.65" y="406" />
            </Array>
            <mxPoint x="1082.65" y="406" as="sourcePoint" />
          </mxGeometry>
        </mxCell>
        <mxCell id="cfhEfqjK3iJdFm8jVArX-98" value="data_a" style="edgeLabel;html=1;align=center;verticalAlign=middle;resizable=0;points=[];" parent="cfhEfqjK3iJdFm8jVArX-97" vertex="1" connectable="0">
          <mxGeometry x="0.1612" y="3" relative="1" as="geometry">
            <mxPoint x="-12" y="2" as="offset" />
          </mxGeometry>
        </mxCell>
        <mxCell id="cfhEfqjK3iJdFm8jVArX-99" style="edgeStyle=orthogonalEdgeStyle;rounded=0;orthogonalLoop=1;jettySize=auto;html=1;entryX=0;entryY=0.25;entryDx=0;entryDy=0;" parent="1" target="cfhEfqjK3iJdFm8jVArX-18" edge="1">
          <mxGeometry relative="1" as="geometry">
            <Array as="points">
              <mxPoint x="1102.65" y="560" />
              <mxPoint x="1102.65" y="560" />
            </Array>
            <mxPoint x="1082.65" y="560" as="sourcePoint" />
          </mxGeometry>
        </mxCell>
        <mxCell id="cfhEfqjK3iJdFm8jVArX-100" value="data_b" style="edgeLabel;html=1;align=center;verticalAlign=middle;resizable=0;points=[];" parent="cfhEfqjK3iJdFm8jVArX-99" vertex="1" connectable="0">
          <mxGeometry x="0.1578" relative="1" as="geometry">
            <mxPoint x="-12" y="-1" as="offset" />
          </mxGeometry>
        </mxCell>
        <mxCell id="cfhEfqjK3iJdFm8jVArX-101" style="edgeStyle=orthogonalEdgeStyle;rounded=0;orthogonalLoop=1;jettySize=auto;html=1;entryX=0;entryY=0.75;entryDx=0;entryDy=0;exitX=1.012;exitY=0.937;exitDx=0;exitDy=0;exitPerimeter=0;" parent="1" target="cfhEfqjK3iJdFm8jVArX-17" edge="1">
          <mxGeometry relative="1" as="geometry">
            <Array as="points">
              <mxPoint x="1085.65" y="700" />
              <mxPoint x="1242.65" y="700" />
              <mxPoint x="1242.65" y="669" />
            </Array>
            <mxPoint x="1083.0099999999998" y="699.6100799999999" as="sourcePoint" />
          </mxGeometry>
        </mxCell>
        <mxCell id="cfhEfqjK3iJdFm8jVArX-102" value="immed" style="edgeLabel;html=1;align=center;verticalAlign=middle;resizable=0;points=[];" parent="cfhEfqjK3iJdFm8jVArX-101" vertex="1" connectable="0">
          <mxGeometry x="-0.7346" y="1" relative="1" as="geometry">
            <mxPoint as="offset" />
          </mxGeometry>
        </mxCell>
        <mxCell id="cfhEfqjK3iJdFm8jVArX-132" style="edgeStyle=orthogonalEdgeStyle;rounded=0;orthogonalLoop=1;jettySize=auto;html=1;entryX=1;entryY=0.5;entryDx=0;entryDy=0;" parent="1" source="rMOaj1iCE9mKYqQH6y1h-58" target="cfhEfqjK3iJdFm8jVArX-20" edge="1">
          <mxGeometry relative="1" as="geometry">
            <Array as="points">
              <mxPoint x="1383" y="380" />
            </Array>
            <mxPoint x="1082.65" y="370" as="sourcePoint" />
          </mxGeometry>
        </mxCell>
        <mxCell id="cfhEfqjK3iJdFm8jVArX-133" value="alu_ctr" style="edgeLabel;html=1;align=center;verticalAlign=middle;resizable=0;points=[];" parent="cfhEfqjK3iJdFm8jVArX-132" vertex="1" connectable="0">
          <mxGeometry x="0.8371" y="-1" relative="1" as="geometry">
            <mxPoint as="offset" />
          </mxGeometry>
        </mxCell>
        <mxCell id="yGvOkxiand3LqxDzhhp--4" style="edgeStyle=orthogonalEdgeStyle;rounded=0;orthogonalLoop=1;jettySize=auto;html=1;entryX=1.001;entryY=0.62;entryDx=0;entryDy=0;strokeColor=#FF711F;entryPerimeter=0;" parent="1" source="rMOaj1iCE9mKYqQH6y1h-58" target="yGvOkxiand3LqxDzhhp--1" edge="1">
          <mxGeometry relative="1" as="geometry">
            <Array as="points">
              <mxPoint x="1110" y="150" />
              <mxPoint x="1110" y="71" />
            </Array>
            <mxPoint x="1110" y="150" as="sourcePoint" />
          </mxGeometry>
        </mxCell>
        <mxCell id="yGvOkxiand3LqxDzhhp--5" value="idex.mem_read" style="edgeLabel;html=1;align=center;verticalAlign=middle;resizable=0;points=[];" parent="yGvOkxiand3LqxDzhhp--4" vertex="1" connectable="0">
          <mxGeometry x="0.8693" y="1" relative="1" as="geometry">
            <mxPoint x="32" y="-1" as="offset" />
          </mxGeometry>
        </mxCell>
        <mxCell id="yGvOkxiand3LqxDzhhp--19" style="edgeStyle=orthogonalEdgeStyle;rounded=0;orthogonalLoop=1;jettySize=auto;html=1;entryX=0.5;entryY=0;entryDx=0;entryDy=0;strokeColor=#000000;" parent="1" target="cfhEfqjK3iJdFm8jVArX-17" edge="1">
          <mxGeometry relative="1" as="geometry">
            <mxPoint x="1082.65" y="356" as="sourcePoint" />
            <mxPoint x="1270.15" y="601.5900000000001" as="targetPoint" />
            <Array as="points">
              <mxPoint x="1270.65" y="356" />
            </Array>
          </mxGeometry>
        </mxCell>
        <mxCell id="yGvOkxiand3LqxDzhhp--20" value="alu_src" style="edgeLabel;html=1;align=center;verticalAlign=middle;resizable=0;points=[];" parent="yGvOkxiand3LqxDzhhp--19" vertex="1" connectable="0">
          <mxGeometry x="0.8837" y="-3" relative="1" as="geometry">
            <mxPoint as="offset" />
          </mxGeometry>
        </mxCell>
        <mxCell id="cfhEfqjK3iJdFm8jVArX-14" value="m&lt;br&gt;u&lt;br&gt;x" style="rounded=1;whiteSpace=wrap;html=1;" parent="1" vertex="1">
          <mxGeometry x="1155.65" y="384.75" width="25" height="84" as="geometry" />
        </mxCell>
        <mxCell id="cfhEfqjK3iJdFm8jVArX-104" style="edgeStyle=orthogonalEdgeStyle;rounded=0;orthogonalLoop=1;jettySize=auto;html=1;entryX=0.635;entryY=1.009;entryDx=0;entryDy=0;entryPerimeter=0;" parent="1" source="cfhEfqjK3iJdFm8jVArX-15" target="cfhEfqjK3iJdFm8jVArX-20" edge="1">
          <mxGeometry relative="1" as="geometry" />
        </mxCell>
        <mxCell id="cfhEfqjK3iJdFm8jVArX-108" value="alu_src_b" style="edgeLabel;html=1;align=center;verticalAlign=middle;resizable=0;points=[];" parent="cfhEfqjK3iJdFm8jVArX-104" vertex="1" connectable="0">
          <mxGeometry x="0.1542" relative="1" as="geometry">
            <mxPoint x="-8" y="-28" as="offset" />
          </mxGeometry>
        </mxCell>
        <mxCell id="cfhEfqjK3iJdFm8jVArX-15" value="mux_alu_src_b" style="text;html=1;strokeColor=none;fillColor=none;align=center;verticalAlign=middle;whiteSpace=wrap;rounded=0;rotation=90;" parent="1" vertex="1">
          <mxGeometry x="1262.65" y="632.59" width="60" height="30" as="geometry" />
        </mxCell>
        <mxCell id="cfhEfqjK3iJdFm8jVArX-105" style="edgeStyle=orthogonalEdgeStyle;rounded=0;orthogonalLoop=1;jettySize=auto;html=1;entryX=0.75;entryY=0;entryDx=0;entryDy=0;" parent="1" source="cfhEfqjK3iJdFm8jVArX-16" target="cfhEfqjK3iJdFm8jVArX-20" edge="1">
          <mxGeometry relative="1" as="geometry" />
        </mxCell>
        <mxCell id="cfhEfqjK3iJdFm8jVArX-107" value="alu_src_a" style="edgeLabel;html=1;align=center;verticalAlign=middle;resizable=0;points=[];" parent="cfhEfqjK3iJdFm8jVArX-105" vertex="1" connectable="0">
          <mxGeometry x="0.5307" y="1" relative="1" as="geometry">
            <mxPoint as="offset" />
          </mxGeometry>
        </mxCell>
        <mxCell id="rMOaj1iCE9mKYqQH6y1h-42" style="edgeStyle=orthogonalEdgeStyle;rounded=0;orthogonalLoop=1;jettySize=auto;html=1;entryX=0;entryY=1;entryDx=0;entryDy=0;" parent="1" source="cfhEfqjK3iJdFm8jVArX-16" target="cfhEfqjK3iJdFm8jVArX-28" edge="1">
          <mxGeometry relative="1" as="geometry">
            <Array as="points">
              <mxPoint x="1250" y="441" />
              <mxPoint x="1250" y="158" />
            </Array>
          </mxGeometry>
        </mxCell>
        <mxCell id="rMOaj1iCE9mKYqQH6y1h-46" value="alu_src_a" style="edgeLabel;html=1;align=center;verticalAlign=middle;resizable=0;points=[];" parent="rMOaj1iCE9mKYqQH6y1h-42" vertex="1" connectable="0">
          <mxGeometry x="0.7333" relative="1" as="geometry">
            <mxPoint as="offset" />
          </mxGeometry>
        </mxCell>
        <mxCell id="cfhEfqjK3iJdFm8jVArX-16" value="&lt;span style=&quot;color: rgb(0 , 0 , 0) ; font-family: &amp;#34;helvetica&amp;#34; ; font-size: 12px ; font-style: normal ; font-weight: 400 ; letter-spacing: normal ; text-align: center ; text-indent: 0px ; text-transform: none ; word-spacing: 0px ; background-color: rgb(248 , 249 , 250) ; display: inline ; float: none&quot;&gt;mux_alu_src_a&lt;/span&gt;" style="text;whiteSpace=wrap;html=1;rotation=90;" parent="1" vertex="1">
          <mxGeometry x="1137.65" y="426" width="110" height="30" as="geometry" />
        </mxCell>
        <mxCell id="cfhEfqjK3iJdFm8jVArX-17" value="m&lt;br&gt;u&lt;br&gt;x" style="rounded=1;whiteSpace=wrap;html=1;" parent="1" vertex="1">
          <mxGeometry x="1257.65" y="605.59" width="25" height="84" as="geometry" />
        </mxCell>
        <mxCell id="cfhEfqjK3iJdFm8jVArX-18" value="m&lt;br&gt;u&lt;br&gt;x" style="rounded=1;whiteSpace=wrap;html=1;" parent="1" vertex="1">
          <mxGeometry x="1155.65" y="540" width="25" height="81" as="geometry" />
        </mxCell>
        <mxCell id="cfhEfqjK3iJdFm8jVArX-103" style="edgeStyle=orthogonalEdgeStyle;rounded=0;orthogonalLoop=1;jettySize=auto;html=1;entryX=0;entryY=0.25;entryDx=0;entryDy=0;" parent="1" source="cfhEfqjK3iJdFm8jVArX-19" target="cfhEfqjK3iJdFm8jVArX-17" edge="1">
          <mxGeometry relative="1" as="geometry">
            <mxPoint x="1202.65" y="581" as="sourcePoint" />
          </mxGeometry>
        </mxCell>
        <mxCell id="rMOaj1iCE9mKYqQH6y1h-41" style="edgeStyle=orthogonalEdgeStyle;rounded=0;orthogonalLoop=1;jettySize=auto;html=1;entryX=0;entryY=0.5;entryDx=0;entryDy=0;" parent="1" source="cfhEfqjK3iJdFm8jVArX-19" target="cfhEfqjK3iJdFm8jVArX-28" edge="1">
          <mxGeometry relative="1" as="geometry">
            <Array as="points">
              <mxPoint x="1220" y="581" />
              <mxPoint x="1220" y="137" />
            </Array>
          </mxGeometry>
        </mxCell>
        <mxCell id="rMOaj1iCE9mKYqQH6y1h-45" value="alu_b_src_b" style="edgeLabel;html=1;align=center;verticalAlign=middle;resizable=0;points=[];" parent="rMOaj1iCE9mKYqQH6y1h-41" vertex="1" connectable="0">
          <mxGeometry x="0.8859" relative="1" as="geometry">
            <mxPoint x="-20" as="offset" />
          </mxGeometry>
        </mxCell>
        <mxCell id="cfhEfqjK3iJdFm8jVArX-19" value="mux_alu_b_src_b" style="text;html=1;strokeColor=none;fillColor=none;align=center;verticalAlign=middle;whiteSpace=wrap;rounded=0;rotation=90;" parent="1" vertex="1">
          <mxGeometry x="1159.4" y="572.75" width="60" height="15.5" as="geometry" />
        </mxCell>
        <mxCell id="cfhEfqjK3iJdFm8jVArX-110" style="edgeStyle=orthogonalEdgeStyle;rounded=0;orthogonalLoop=1;jettySize=auto;html=1;entryX=0;entryY=0.75;entryDx=0;entryDy=0;" parent="1" source="cfhEfqjK3iJdFm8jVArX-20" target="rMOaj1iCE9mKYqQH6y1h-37" edge="1">
          <mxGeometry relative="1" as="geometry">
            <Array as="points">
              <mxPoint x="1500" y="510" />
              <mxPoint x="1500" y="428" />
            </Array>
            <mxPoint x="1473.7299999999996" y="510.07328000000007" as="targetPoint" />
          </mxGeometry>
        </mxCell>
        <mxCell id="cfhEfqjK3iJdFm8jVArX-111" value="result" style="edgeLabel;html=1;align=center;verticalAlign=middle;resizable=0;points=[];" parent="cfhEfqjK3iJdFm8jVArX-110" vertex="1" connectable="0">
          <mxGeometry x="-0.1508" y="1" relative="1" as="geometry">
            <mxPoint as="offset" />
          </mxGeometry>
        </mxCell>
        <mxCell id="cfhEfqjK3iJdFm8jVArX-112" style="edgeStyle=orthogonalEdgeStyle;rounded=0;orthogonalLoop=1;jettySize=auto;html=1;" parent="1" source="cfhEfqjK3iJdFm8jVArX-20" target="cfhEfqjK3iJdFm8jVArX-27" edge="1">
          <mxGeometry relative="1" as="geometry">
            <Array as="points">
              <mxPoint x="1440" y="490" />
            </Array>
            <mxPoint x="1472.2299999999996" y="438.0972800000004" as="targetPoint" />
          </mxGeometry>
        </mxCell>
        <mxCell id="cfhEfqjK3iJdFm8jVArX-113" value="carry_out" style="edgeLabel;html=1;align=center;verticalAlign=middle;resizable=0;points=[];" parent="cfhEfqjK3iJdFm8jVArX-112" vertex="1" connectable="0">
          <mxGeometry x="0.5407" y="1" relative="1" as="geometry">
            <mxPoint x="1" y="6" as="offset" />
          </mxGeometry>
        </mxCell>
        <mxCell id="cfhEfqjK3iJdFm8jVArX-114" style="edgeStyle=orthogonalEdgeStyle;rounded=0;orthogonalLoop=1;jettySize=auto;html=1;entryX=0;entryY=0.649;entryDx=0;entryDy=0;entryPerimeter=0;" parent="1" source="cfhEfqjK3iJdFm8jVArX-20" target="rMOaj1iCE9mKYqQH6y1h-25" edge="1">
          <mxGeometry relative="1" as="geometry">
            <Array as="points">
              <mxPoint x="1433" y="530" />
              <mxPoint x="1433" y="580" />
            </Array>
            <mxPoint x="1472.6499999999996" y="580.1299200000003" as="targetPoint" />
          </mxGeometry>
        </mxCell>
        <mxCell id="cfhEfqjK3iJdFm8jVArX-115" value="load_msb" style="edgeLabel;html=1;align=center;verticalAlign=middle;resizable=0;points=[];" parent="cfhEfqjK3iJdFm8jVArX-114" vertex="1" connectable="0">
          <mxGeometry x="0.4855" y="1" relative="1" as="geometry">
            <mxPoint x="-12" y="1" as="offset" />
          </mxGeometry>
        </mxCell>
        <mxCell id="cfhEfqjK3iJdFm8jVArX-20" value="alu" style="verticalLabelPosition=middle;verticalAlign=middle;html=1;shape=trapezoid;perimeter=trapezoidPerimeter;whiteSpace=wrap;size=0.23;arcSize=10;flipV=1;labelPosition=center;align=center;rotation=0;flipH=1;direction=north;" parent="1" vertex="1">
          <mxGeometry x="1352.65" y="442.71000000000004" width="60" height="133.84" as="geometry" />
        </mxCell>
        <mxCell id="cfhEfqjK3iJdFm8jVArX-36" style="edgeStyle=orthogonalEdgeStyle;rounded=0;orthogonalLoop=1;jettySize=auto;html=1;entryX=0;entryY=0.75;entryDx=0;entryDy=0;" parent="1" source="cfhEfqjK3iJdFm8jVArX-21" target="MGpwRtADwgVNTOVfMMKY-10" edge="1">
          <mxGeometry relative="1" as="geometry">
            <Array as="points">
              <mxPoint x="350" y="419" />
              <mxPoint x="350" y="290" />
              <mxPoint x="200" y="290" />
              <mxPoint x="200" y="241" />
            </Array>
          </mxGeometry>
        </mxCell>
        <mxCell id="MGpwRtADwgVNTOVfMMKY-14" style="edgeStyle=orthogonalEdgeStyle;rounded=0;orthogonalLoop=1;jettySize=auto;html=1;strokeColor=#97D077;entryX=0.033;entryY=0.424;entryDx=0;entryDy=0;entryPerimeter=0;" parent="1" source="cfhEfqjK3iJdFm8jVArX-21" target="cfhEfqjK3iJdFm8jVArX-2" edge="1">
          <mxGeometry relative="1" as="geometry">
            <mxPoint x="390" y="419" as="targetPoint" />
          </mxGeometry>
        </mxCell>
        <mxCell id="cfhEfqjK3iJdFm8jVArX-21" value="next_pc" style="verticalLabelPosition=middle;verticalAlign=middle;html=1;shape=trapezoid;perimeter=trapezoidPerimeter;whiteSpace=wrap;size=0.23;arcSize=10;flipV=1;labelPosition=center;align=center;rotation=0;flipH=1;direction=north;" parent="1" vertex="1">
          <mxGeometry x="280" y="367.41" width="60" height="103.84" as="geometry" />
        </mxCell>
        <mxCell id="cfhEfqjK3iJdFm8jVArX-185" style="edgeStyle=orthogonalEdgeStyle;rounded=0;orthogonalLoop=1;jettySize=auto;html=1;entryX=0;entryY=0.25;entryDx=0;entryDy=0;exitX=1;exitY=0.5;exitDx=0;exitDy=0;" parent="1" source="cfhEfqjK3iJdFm8jVArX-166" target="cfhEfqjK3iJdFm8jVArX-30" edge="1">
          <mxGeometry relative="1" as="geometry">
            <Array as="points">
              <mxPoint x="1971.94" y="499.18" />
              <mxPoint x="1971.94" y="424.18" />
            </Array>
          </mxGeometry>
        </mxCell>
        <mxCell id="cfhEfqjK3iJdFm8jVArX-23" value="data_mem" style="whiteSpace=wrap;html=1;aspect=fixed;" parent="1" vertex="1">
          <mxGeometry x="1761.94" y="367.37000000000006" width="177.06" height="177.06" as="geometry" />
        </mxCell>
        <mxCell id="cfhEfqjK3iJdFm8jVArX-24" value="m&lt;br&gt;u&lt;br&gt;x" style="rounded=1;whiteSpace=wrap;html=1;" parent="1" vertex="1">
          <mxGeometry x="2497.92" y="429.67" width="24" height="120" as="geometry" />
        </mxCell>
        <mxCell id="cfhEfqjK3iJdFm8jVArX-212" style="edgeStyle=orthogonalEdgeStyle;rounded=0;orthogonalLoop=1;jettySize=auto;html=1;entryX=0.5;entryY=1;entryDx=0;entryDy=0;" parent="1" source="cfhEfqjK3iJdFm8jVArX-25" target="cfhEfqjK3iJdFm8jVArX-213" edge="1">
          <mxGeometry relative="1" as="geometry">
            <mxPoint x="550" y="710" as="targetPoint" />
            <Array as="points">
              <mxPoint x="2580" y="490" />
              <mxPoint x="2580" y="1030" />
              <mxPoint x="530" y="1030" />
              <mxPoint x="530" y="750" />
              <mxPoint x="610" y="750" />
            </Array>
          </mxGeometry>
        </mxCell>
        <mxCell id="cfhEfqjK3iJdFm8jVArX-218" value="write_data" style="edgeLabel;html=1;align=center;verticalAlign=middle;resizable=0;points=[];" parent="cfhEfqjK3iJdFm8jVArX-212" vertex="1" connectable="0">
          <mxGeometry x="-0.9422" y="-1" relative="1" as="geometry">
            <mxPoint as="offset" />
          </mxGeometry>
        </mxCell>
        <mxCell id="cfhEfqjK3iJdFm8jVArX-25" value="mux_mem_to_reg" style="text;html=1;strokeColor=none;fillColor=none;align=center;verticalAlign=middle;whiteSpace=wrap;rounded=0;rotation=90;" parent="1" vertex="1">
          <mxGeometry x="2497.92" y="474.66999999999996" width="60" height="30" as="geometry" />
        </mxCell>
        <mxCell id="rMOaj1iCE9mKYqQH6y1h-39" style="edgeStyle=orthogonalEdgeStyle;rounded=0;orthogonalLoop=1;jettySize=auto;html=1;entryX=0;entryY=0.5;entryDx=0;entryDy=0;" parent="1" source="cfhEfqjK3iJdFm8jVArX-27" target="rMOaj1iCE9mKYqQH6y1h-37" edge="1">
          <mxGeometry relative="1" as="geometry" />
        </mxCell>
        <mxCell id="cfhEfqjK3iJdFm8jVArX-27" value="slt_result&lt;br&gt;_comp" style="ellipse;whiteSpace=wrap;html=1;" parent="1" vertex="1">
          <mxGeometry x="1391.6200000000001" y="360.63000000000005" width="78.38" height="50.75" as="geometry" />
        </mxCell>
        <mxCell id="cfhEfqjK3iJdFm8jVArX-184" style="edgeStyle=orthogonalEdgeStyle;rounded=0;orthogonalLoop=1;jettySize=auto;html=1;entryX=0;entryY=0.5;entryDx=0;entryDy=0;" parent="1" source="cfhEfqjK3iJdFm8jVArX-29" target="cfhEfqjK3iJdFm8jVArX-32" edge="1">
          <mxGeometry relative="1" as="geometry" />
        </mxCell>
        <mxCell id="cfhEfqjK3iJdFm8jVArX-29" value="load_byte" style="ellipse;whiteSpace=wrap;html=1;" parent="1" vertex="1">
          <mxGeometry x="2001.94" y="470.88000000000005" width="85.64" height="57.09" as="geometry" />
        </mxCell>
        <mxCell id="cfhEfqjK3iJdFm8jVArX-30" value="m&lt;br&gt;u&lt;br&gt;x" style="rounded=1;whiteSpace=wrap;html=1;" parent="1" vertex="1">
          <mxGeometry x="2251.94" y="403.43" width="24" height="81" as="geometry" />
        </mxCell>
        <mxCell id="cfhEfqjK3iJdFm8jVArX-187" value="data_out" style="edgeStyle=orthogonalEdgeStyle;rounded=0;orthogonalLoop=1;jettySize=auto;html=1;entryX=-0.007;entryY=0.445;entryDx=0;entryDy=0;entryPerimeter=0;" parent="1" source="cfhEfqjK3iJdFm8jVArX-31" target="rMOaj1iCE9mKYqQH6y1h-57" edge="1">
          <mxGeometry x="0.0071" y="-10" relative="1" as="geometry">
            <mxPoint as="offset" />
            <mxPoint x="2359.9299999999994" y="582.6759999999999" as="targetPoint" />
            <Array as="points" />
          </mxGeometry>
        </mxCell>
        <mxCell id="cfhEfqjK3iJdFm8jVArX-31" value="mux_data_to_mux" style="text;html=1;strokeColor=none;fillColor=none;align=center;verticalAlign=middle;whiteSpace=wrap;rounded=0;rotation=90;" parent="1" vertex="1">
          <mxGeometry x="2255.94" y="419.7699999999999" width="60" height="30" as="geometry" />
        </mxCell>
        <mxCell id="cfhEfqjK3iJdFm8jVArX-186" style="edgeStyle=orthogonalEdgeStyle;rounded=0;orthogonalLoop=1;jettySize=auto;html=1;entryX=0;entryY=0.75;entryDx=0;entryDy=0;" parent="1" source="cfhEfqjK3iJdFm8jVArX-32" target="cfhEfqjK3iJdFm8jVArX-30" edge="1">
          <mxGeometry relative="1" as="geometry" />
        </mxCell>
        <mxCell id="cfhEfqjK3iJdFm8jVArX-32" value="byte_sign&lt;br&gt;_extend" style="ellipse;whiteSpace=wrap;html=1;" parent="1" vertex="1">
          <mxGeometry x="2111.94" y="469.31" width="90" height="60.25" as="geometry" />
        </mxCell>
        <mxCell id="cfhEfqjK3iJdFm8jVArX-93" style="edgeStyle=orthogonalEdgeStyle;rounded=0;orthogonalLoop=1;jettySize=auto;html=1;entryX=0.5;entryY=1;entryDx=0;entryDy=0;" parent="1" source="cfhEfqjK3iJdFm8jVArX-33" target="cfhEfqjK3iJdFm8jVArX-14" edge="1">
          <mxGeometry relative="1" as="geometry">
            <Array as="points">
              <mxPoint x="1212.65" y="510" />
              <mxPoint x="1168.65" y="510" />
            </Array>
          </mxGeometry>
        </mxCell>
        <mxCell id="cfhEfqjK3iJdFm8jVArX-94" value="alu_src_b_&lt;br&gt;forward_sel" style="edgeLabel;html=1;align=center;verticalAlign=middle;resizable=0;points=[];" parent="cfhEfqjK3iJdFm8jVArX-93" vertex="1" connectable="0">
          <mxGeometry x="0.8329" relative="1" as="geometry">
            <mxPoint x="12" as="offset" />
          </mxGeometry>
        </mxCell>
        <mxCell id="cfhEfqjK3iJdFm8jVArX-95" style="edgeStyle=orthogonalEdgeStyle;rounded=0;orthogonalLoop=1;jettySize=auto;html=1;entryX=0.5;entryY=1;entryDx=0;entryDy=0;" parent="1" source="cfhEfqjK3iJdFm8jVArX-33" target="cfhEfqjK3iJdFm8jVArX-18" edge="1">
          <mxGeometry relative="1" as="geometry">
            <Array as="points">
              <mxPoint x="1168.65" y="710" />
            </Array>
          </mxGeometry>
        </mxCell>
        <mxCell id="cfhEfqjK3iJdFm8jVArX-96" value="alu_src_b_&lt;br&gt;forward_sel" style="edgeLabel;html=1;align=center;verticalAlign=middle;resizable=0;points=[];" parent="cfhEfqjK3iJdFm8jVArX-95" vertex="1" connectable="0">
          <mxGeometry x="0.5895" y="3" relative="1" as="geometry">
            <mxPoint x="3" y="7" as="offset" />
          </mxGeometry>
        </mxCell>
        <mxCell id="cfhEfqjK3iJdFm8jVArX-33" value="forwarding_unit_part" style="rounded=1;whiteSpace=wrap;html=1;" parent="1" vertex="1">
          <mxGeometry x="1185.74" y="800" width="145" height="80" as="geometry" />
        </mxCell>
        <mxCell id="cfhEfqjK3iJdFm8jVArX-38" value="1" style="endArrow=classic;html=1;rounded=0;entryX=0.25;entryY=0;entryDx=0;entryDy=0;" parent="1" target="cfhEfqjK3iJdFm8jVArX-21" edge="1">
          <mxGeometry x="-1" y="-10" width="50" height="50" relative="1" as="geometry">
            <mxPoint x="250" y="445" as="sourcePoint" />
            <mxPoint x="250" y="430" as="targetPoint" />
            <mxPoint x="-10" y="-10" as="offset" />
          </mxGeometry>
        </mxCell>
        <mxCell id="cfhEfqjK3iJdFm8jVArX-41" value="insn" style="text;html=1;strokeColor=none;fillColor=none;align=center;verticalAlign=middle;whiteSpace=wrap;rounded=0;" parent="1" vertex="1">
          <mxGeometry x="340" y="547.09" width="60" height="30" as="geometry" />
        </mxCell>
        <mxCell id="cfhEfqjK3iJdFm8jVArX-42" value="next_pc" style="text;html=1;strokeColor=none;fillColor=none;align=center;verticalAlign=middle;whiteSpace=wrap;rounded=0;" parent="1" vertex="1">
          <mxGeometry x="220" y="283" width="60" height="30" as="geometry" />
        </mxCell>
        <mxCell id="cfhEfqjK3iJdFm8jVArX-43" value="curr_pc" style="text;html=1;strokeColor=none;fillColor=none;align=center;verticalAlign=middle;whiteSpace=wrap;rounded=0;" parent="1" vertex="1">
          <mxGeometry x="200" y="562.25" width="60" height="30" as="geometry" />
        </mxCell>
        <mxCell id="cfhEfqjK3iJdFm8jVArX-60" value="reg_a" style="text;html=1;strokeColor=none;fillColor=none;align=center;verticalAlign=middle;whiteSpace=wrap;rounded=0;" parent="1" vertex="1">
          <mxGeometry x="567" y="540" width="35" height="30" as="geometry" />
        </mxCell>
        <mxCell id="cfhEfqjK3iJdFm8jVArX-61" value="reg_b" style="text;html=1;strokeColor=none;fillColor=none;align=center;verticalAlign=middle;whiteSpace=wrap;rounded=0;" parent="1" vertex="1">
          <mxGeometry x="568" y="575.5899999999999" width="34.25" height="30" as="geometry" />
        </mxCell>
        <mxCell id="cfhEfqjK3iJdFm8jVArX-65" style="edgeStyle=orthogonalEdgeStyle;rounded=0;orthogonalLoop=1;jettySize=auto;html=1;entryX=-0.05;entryY=0.447;entryDx=0;entryDy=0;entryPerimeter=0;" parent="1" source="cfhEfqjK3iJdFm8jVArX-11" edge="1">
          <mxGeometry relative="1" as="geometry">
            <mxPoint x="1051.15" y="464.48848" as="targetPoint" />
          </mxGeometry>
        </mxCell>
        <mxCell id="cfhEfqjK3iJdFm8jVArX-66" value="forwarded_write_register" style="edgeLabel;html=1;align=center;verticalAlign=middle;resizable=0;points=[];" parent="cfhEfqjK3iJdFm8jVArX-65" vertex="1" connectable="0">
          <mxGeometry x="-0.1102" relative="1" as="geometry">
            <mxPoint y="-9" as="offset" />
          </mxGeometry>
        </mxCell>
        <mxCell id="cfhEfqjK3iJdFm8jVArX-67" value="4" style="edgeLabel;html=1;align=center;verticalAlign=middle;resizable=0;points=[];" parent="cfhEfqjK3iJdFm8jVArX-65" vertex="1" connectable="0">
          <mxGeometry x="0.5678" y="1" relative="1" as="geometry">
            <mxPoint as="offset" />
          </mxGeometry>
        </mxCell>
        <mxCell id="cfhEfqjK3iJdFm8jVArX-11" value="mux_forward_reg_dst" style="text;html=1;strokeColor=none;fillColor=none;align=center;verticalAlign=middle;whiteSpace=wrap;rounded=0;rotation=90;" parent="1" vertex="1">
          <mxGeometry x="538.3" y="454.3" width="130" height="20.59" as="geometry" />
        </mxCell>
        <mxCell id="cfhEfqjK3iJdFm8jVArX-161" style="edgeStyle=orthogonalEdgeStyle;rounded=0;orthogonalLoop=1;jettySize=auto;html=1;" parent="1" source="rMOaj1iCE9mKYqQH6y1h-25" target="cfhEfqjK3iJdFm8jVArX-163" edge="1">
          <mxGeometry relative="1" as="geometry">
            <mxPoint x="1671.27" y="489.75" as="sourcePoint" />
            <mxPoint x="1804.92" y="487.75" as="targetPoint" />
            <Array as="points">
              <mxPoint x="1818" y="300" />
            </Array>
          </mxGeometry>
        </mxCell>
        <mxCell id="cfhEfqjK3iJdFm8jVArX-162" value="mem_write" style="edgeLabel;html=1;align=center;verticalAlign=middle;resizable=0;points=[];" parent="cfhEfqjK3iJdFm8jVArX-161" vertex="1" connectable="0">
          <mxGeometry x="0.8029" y="-1" relative="1" as="geometry">
            <mxPoint x="-3" y="3" as="offset" />
          </mxGeometry>
        </mxCell>
        <mxCell id="cfhEfqjK3iJdFm8jVArX-167" style="edgeStyle=orthogonalEdgeStyle;rounded=0;orthogonalLoop=1;jettySize=auto;html=1;entryX=0;entryY=0.5;entryDx=0;entryDy=0;" parent="1" source="rMOaj1iCE9mKYqQH6y1h-25" target="cfhEfqjK3iJdFm8jVArX-164" edge="1">
          <mxGeometry relative="1" as="geometry">
            <mxPoint x="1670.92" y="567.75" as="sourcePoint" />
            <Array as="points">
              <mxPoint x="1700" y="412" />
              <mxPoint x="1700" y="412" />
            </Array>
          </mxGeometry>
        </mxCell>
        <mxCell id="cfhEfqjK3iJdFm8jVArX-169" value="data_b" style="edgeLabel;html=1;align=center;verticalAlign=middle;resizable=0;points=[];" parent="cfhEfqjK3iJdFm8jVArX-167" vertex="1" connectable="0">
          <mxGeometry x="0.1567" y="2" relative="1" as="geometry">
            <mxPoint x="-3" y="1" as="offset" />
          </mxGeometry>
        </mxCell>
        <mxCell id="cfhEfqjK3iJdFm8jVArX-168" style="edgeStyle=orthogonalEdgeStyle;rounded=0;orthogonalLoop=1;jettySize=auto;html=1;" parent="1" edge="1">
          <mxGeometry relative="1" as="geometry">
            <mxPoint x="1661.94" y="489.35" as="sourcePoint" />
            <mxPoint x="1761.94" y="489.35" as="targetPoint" />
            <Array as="points">
              <mxPoint x="1691.94" y="489.35" />
              <mxPoint x="1691.94" y="489.35" />
            </Array>
          </mxGeometry>
        </mxCell>
        <mxCell id="cfhEfqjK3iJdFm8jVArX-170" value="alu_result[3:0]" style="edgeLabel;html=1;align=center;verticalAlign=middle;resizable=0;points=[];" parent="cfhEfqjK3iJdFm8jVArX-168" vertex="1" connectable="0">
          <mxGeometry x="0.204" relative="1" as="geometry">
            <mxPoint x="-2" y="-14" as="offset" />
          </mxGeometry>
        </mxCell>
        <mxCell id="cfhEfqjK3iJdFm8jVArX-182" style="edgeStyle=orthogonalEdgeStyle;rounded=0;orthogonalLoop=1;jettySize=auto;html=1;" parent="1" source="rMOaj1iCE9mKYqQH6y1h-25" target="cfhEfqjK3iJdFm8jVArX-29" edge="1">
          <mxGeometry relative="1" as="geometry">
            <mxPoint x="2030.92" y="619.75" as="targetPoint" />
            <Array as="points">
              <mxPoint x="2020" y="250" />
            </Array>
            <mxPoint x="1670.9199999999996" y="509.75" as="sourcePoint" />
          </mxGeometry>
        </mxCell>
        <mxCell id="cfhEfqjK3iJdFm8jVArX-183" value="lmsb" style="edgeLabel;html=1;align=center;verticalAlign=middle;resizable=0;points=[];" parent="cfhEfqjK3iJdFm8jVArX-182" vertex="1" connectable="0">
          <mxGeometry x="0.9447" relative="1" as="geometry">
            <mxPoint y="-4" as="offset" />
          </mxGeometry>
        </mxCell>
        <mxCell id="cfhEfqjK3iJdFm8jVArX-236" style="edgeStyle=orthogonalEdgeStyle;rounded=0;orthogonalLoop=1;jettySize=auto;html=1;entryX=0.999;entryY=0.196;entryDx=0;entryDy=0;entryPerimeter=0;" parent="1" source="rMOaj1iCE9mKYqQH6y1h-25" target="cfhEfqjK3iJdFm8jVArX-33" edge="1">
          <mxGeometry relative="1" as="geometry">
            <Array as="points">
              <mxPoint x="1690" y="610" />
              <mxPoint x="1690" y="840" />
              <mxPoint x="1550" y="840" />
              <mxPoint x="1550" y="816" />
            </Array>
            <mxPoint x="1502.6499999999996" y="700" as="sourcePoint" />
          </mxGeometry>
        </mxCell>
        <mxCell id="cfhEfqjK3iJdFm8jVArX-237" value="exmem_reg_write" style="edgeLabel;html=1;align=center;verticalAlign=middle;resizable=0;points=[];" parent="cfhEfqjK3iJdFm8jVArX-236" vertex="1" connectable="0">
          <mxGeometry x="0.8486" y="-1" relative="1" as="geometry">
            <mxPoint x="32" as="offset" />
          </mxGeometry>
        </mxCell>
        <mxCell id="cfhEfqjK3iJdFm8jVArX-238" style="edgeStyle=orthogonalEdgeStyle;rounded=0;orthogonalLoop=1;jettySize=auto;html=1;" parent="1" source="rMOaj1iCE9mKYqQH6y1h-25" target="cfhEfqjK3iJdFm8jVArX-33" edge="1">
          <mxGeometry relative="1" as="geometry">
            <Array as="points">
              <mxPoint x="1710" y="600" />
              <mxPoint x="1710" y="860" />
              <mxPoint x="1540" y="860" />
              <mxPoint x="1540" y="830" />
            </Array>
            <mxPoint x="1502.6499999999996" y="680" as="sourcePoint" />
          </mxGeometry>
        </mxCell>
        <mxCell id="cfhEfqjK3iJdFm8jVArX-239" value="exmem_forwarded_write_register" style="edgeLabel;html=1;align=center;verticalAlign=middle;resizable=0;points=[];" parent="cfhEfqjK3iJdFm8jVArX-238" vertex="1" connectable="0">
          <mxGeometry x="0.8612" relative="1" as="geometry">
            <mxPoint x="71" as="offset" />
          </mxGeometry>
        </mxCell>
        <mxCell id="cfhEfqjK3iJdFm8jVArX-204" style="edgeStyle=orthogonalEdgeStyle;rounded=0;orthogonalLoop=1;jettySize=auto;html=1;entryX=0;entryY=0.136;entryDx=0;entryDy=0;entryPerimeter=0;" parent="1" target="cfhEfqjK3iJdFm8jVArX-24" edge="1">
          <mxGeometry relative="1" as="geometry">
            <Array as="points">
              <mxPoint x="2415.92" y="445.75" />
            </Array>
            <mxPoint x="2390.92" y="446" as="sourcePoint" />
          </mxGeometry>
        </mxCell>
        <mxCell id="cfhEfqjK3iJdFm8jVArX-208" value="alu_result" style="edgeLabel;html=1;align=center;verticalAlign=middle;resizable=0;points=[];" parent="cfhEfqjK3iJdFm8jVArX-204" vertex="1" connectable="0">
          <mxGeometry x="-0.109" y="1" relative="1" as="geometry">
            <mxPoint as="offset" />
          </mxGeometry>
        </mxCell>
        <mxCell id="cfhEfqjK3iJdFm8jVArX-205" style="edgeStyle=orthogonalEdgeStyle;rounded=0;orthogonalLoop=1;jettySize=auto;html=1;entryX=-0.074;entryY=0.336;entryDx=0;entryDy=0;entryPerimeter=0;" parent="1" target="cfhEfqjK3iJdFm8jVArX-24" edge="1">
          <mxGeometry relative="1" as="geometry">
            <Array as="points">
              <mxPoint x="2415.92" y="469.75" />
            </Array>
            <mxPoint x="2390.92" y="470" as="sourcePoint" />
          </mxGeometry>
        </mxCell>
        <mxCell id="cfhEfqjK3iJdFm8jVArX-209" value="read_data" style="edgeLabel;html=1;align=center;verticalAlign=middle;resizable=0;points=[];" parent="cfhEfqjK3iJdFm8jVArX-205" vertex="1" connectable="0">
          <mxGeometry x="-0.1574" relative="1" as="geometry">
            <mxPoint as="offset" />
          </mxGeometry>
        </mxCell>
        <mxCell id="cfhEfqjK3iJdFm8jVArX-206" value="slt_data" style="edgeStyle=orthogonalEdgeStyle;rounded=0;orthogonalLoop=1;jettySize=auto;html=1;entryX=0.056;entryY=0.592;entryDx=0;entryDy=0;entryPerimeter=0;" parent="1" target="cfhEfqjK3iJdFm8jVArX-24" edge="1">
          <mxGeometry relative="1" as="geometry">
            <Array as="points">
              <mxPoint x="2410.92" y="500.75" />
              <mxPoint x="2410.92" y="500.75" />
            </Array>
            <mxPoint x="2390.92" y="500.7142857142858" as="sourcePoint" />
          </mxGeometry>
        </mxCell>
        <mxCell id="cfhEfqjK3iJdFm8jVArX-207" value="srr_data" style="edgeStyle=orthogonalEdgeStyle;rounded=0;orthogonalLoop=1;jettySize=auto;html=1;entryX=0.125;entryY=0.834;entryDx=0;entryDy=0;entryPerimeter=0;" parent="1" target="cfhEfqjK3iJdFm8jVArX-24" edge="1">
          <mxGeometry relative="1" as="geometry">
            <mxPoint x="2390.9200000000005" y="529.75" as="sourcePoint" />
            <mxPoint x="2440.0320000000006" y="529.83" as="targetPoint" />
            <Array as="points" />
          </mxGeometry>
        </mxCell>
        <mxCell id="cfhEfqjK3iJdFm8jVArX-210" style="edgeStyle=orthogonalEdgeStyle;rounded=0;orthogonalLoop=1;jettySize=auto;html=1;entryX=0.5;entryY=0;entryDx=0;entryDy=0;" parent="1" target="cfhEfqjK3iJdFm8jVArX-24" edge="1">
          <mxGeometry relative="1" as="geometry">
            <Array as="points">
              <mxPoint x="2509.92" y="319.75" />
            </Array>
            <mxPoint x="2390.92" y="319.71428571428623" as="sourcePoint" />
          </mxGeometry>
        </mxCell>
        <mxCell id="cfhEfqjK3iJdFm8jVArX-211" value="mem_to_reg" style="edgeLabel;html=1;align=center;verticalAlign=middle;resizable=0;points=[];" parent="cfhEfqjK3iJdFm8jVArX-210" vertex="1" connectable="0">
          <mxGeometry x="0.688" y="-2" relative="1" as="geometry">
            <mxPoint as="offset" />
          </mxGeometry>
        </mxCell>
        <mxCell id="cfhEfqjK3iJdFm8jVArX-215" style="edgeStyle=orthogonalEdgeStyle;rounded=0;orthogonalLoop=1;jettySize=auto;html=1;entryX=0.5;entryY=0;entryDx=0;entryDy=0;exitX=0.912;exitY=0.044;exitDx=0;exitDy=0;exitPerimeter=0;" parent="1" target="cfhEfqjK3iJdFm8jVArX-214" edge="1">
          <mxGeometry relative="1" as="geometry">
            <Array as="points">
              <mxPoint x="2250" y="270" />
              <mxPoint x="2250" y="20" />
              <mxPoint x="670" y="20" />
            </Array>
            <mxPoint x="2388.2799999999997" y="140.54800000000023" as="sourcePoint" />
          </mxGeometry>
        </mxCell>
        <mxCell id="cfhEfqjK3iJdFm8jVArX-216" value="reg_write" style="edgeLabel;html=1;align=center;verticalAlign=middle;resizable=0;points=[];" parent="cfhEfqjK3iJdFm8jVArX-215" vertex="1" connectable="0">
          <mxGeometry x="0.969" y="-1" relative="1" as="geometry">
            <mxPoint as="offset" />
          </mxGeometry>
        </mxCell>
        <mxCell id="cfhEfqjK3iJdFm8jVArX-217" value="reg_write" style="edgeLabel;html=1;align=center;verticalAlign=middle;resizable=0;points=[];" parent="cfhEfqjK3iJdFm8jVArX-215" vertex="1" connectable="0">
          <mxGeometry x="-0.9793" relative="1" as="geometry">
            <mxPoint x="-173" y="-100" as="offset" />
          </mxGeometry>
        </mxCell>
        <mxCell id="cfhEfqjK3iJdFm8jVArX-220" style="edgeStyle=orthogonalEdgeStyle;rounded=0;orthogonalLoop=1;jettySize=auto;html=1;entryX=-0.033;entryY=0.167;entryDx=0;entryDy=0;entryPerimeter=0;" parent="1" target="cfhEfqjK3iJdFm8jVArX-10" edge="1">
          <mxGeometry relative="1" as="geometry">
            <mxPoint x="470" y="660" as="targetPoint" />
            <Array as="points">
              <mxPoint x="2410" y="720" />
              <mxPoint x="2410" y="1010" />
              <mxPoint x="460" y="1010" />
              <mxPoint x="460" y="642" />
            </Array>
            <mxPoint x="2360.92" y="720" as="sourcePoint" />
          </mxGeometry>
        </mxCell>
        <mxCell id="cfhEfqjK3iJdFm8jVArX-221" value="insn" style="edgeLabel;html=1;align=center;verticalAlign=middle;resizable=0;points=[];" parent="cfhEfqjK3iJdFm8jVArX-220" vertex="1" connectable="0">
          <mxGeometry x="-0.9629" y="2" relative="1" as="geometry">
            <mxPoint x="-2" y="112" as="offset" />
          </mxGeometry>
        </mxCell>
        <mxCell id="cfhEfqjK3iJdFm8jVArX-223" value="[7:4]" style="edgeLabel;html=1;align=center;verticalAlign=middle;resizable=0;points=[];" parent="cfhEfqjK3iJdFm8jVArX-220" vertex="1" connectable="0">
          <mxGeometry x="0.9782" y="1" relative="1" as="geometry">
            <mxPoint x="6" as="offset" />
          </mxGeometry>
        </mxCell>
        <mxCell id="cfhEfqjK3iJdFm8jVArX-228" style="edgeStyle=orthogonalEdgeStyle;rounded=0;orthogonalLoop=1;jettySize=auto;html=1;" parent="1" edge="1">
          <mxGeometry relative="1" as="geometry">
            <mxPoint x="520" y="699.98" as="targetPoint" />
            <Array as="points">
              <mxPoint x="2430" y="690" />
              <mxPoint x="2430" y="990" />
              <mxPoint x="520" y="990" />
            </Array>
            <mxPoint x="2380.92" y="689.98" as="sourcePoint" />
          </mxGeometry>
        </mxCell>
        <mxCell id="cfhEfqjK3iJdFm8jVArX-229" value="reg_dst" style="edgeLabel;html=1;align=center;verticalAlign=middle;resizable=0;points=[];" parent="cfhEfqjK3iJdFm8jVArX-228" vertex="1" connectable="0">
          <mxGeometry x="0.9713" relative="1" as="geometry">
            <mxPoint as="offset" />
          </mxGeometry>
        </mxCell>
        <mxCell id="rMOaj1iCE9mKYqQH6y1h-77" value="reg_dst" style="edgeLabel;html=1;align=center;verticalAlign=middle;resizable=0;points=[];" parent="cfhEfqjK3iJdFm8jVArX-228" vertex="1" connectable="0">
          <mxGeometry x="-0.8846" y="-3" relative="1" as="geometry">
            <mxPoint x="3" y="22" as="offset" />
          </mxGeometry>
        </mxCell>
        <mxCell id="cfhEfqjK3iJdFm8jVArX-247" style="edgeStyle=orthogonalEdgeStyle;rounded=0;orthogonalLoop=1;jettySize=auto;html=1;" parent="1" target="cfhEfqjK3iJdFm8jVArX-33" edge="1">
          <mxGeometry relative="1" as="geometry">
            <mxPoint x="1282.65" y="850" as="targetPoint" />
            <Array as="points">
              <mxPoint x="2303" y="660" />
              <mxPoint x="2303" y="880" />
              <mxPoint x="1530" y="880" />
              <mxPoint x="1530" y="850" />
            </Array>
            <mxPoint x="2360.92" y="660" as="sourcePoint" />
          </mxGeometry>
        </mxCell>
        <mxCell id="cfhEfqjK3iJdFm8jVArX-248" value="memwb_reg_write" style="edgeLabel;html=1;align=center;verticalAlign=middle;resizable=0;points=[];" parent="cfhEfqjK3iJdFm8jVArX-247" vertex="1" connectable="0">
          <mxGeometry x="0.9576" y="1" relative="1" as="geometry">
            <mxPoint x="33" y="-1" as="offset" />
          </mxGeometry>
        </mxCell>
        <mxCell id="cfhEfqjK3iJdFm8jVArX-250" style="edgeStyle=orthogonalEdgeStyle;rounded=0;orthogonalLoop=1;jettySize=auto;html=1;entryX=1.002;entryY=0.878;entryDx=0;entryDy=0;entryPerimeter=0;" parent="1" source="rMOaj1iCE9mKYqQH6y1h-57" target="cfhEfqjK3iJdFm8jVArX-33" edge="1">
          <mxGeometry relative="1" as="geometry">
            <mxPoint x="1302.65" y="870" as="targetPoint" />
            <Array as="points">
              <mxPoint x="2320" y="680" />
              <mxPoint x="2320" y="900" />
              <mxPoint x="1520" y="900" />
              <mxPoint x="1520" y="870" />
            </Array>
            <mxPoint x="2360.92" y="640" as="sourcePoint" />
          </mxGeometry>
        </mxCell>
        <mxCell id="cfhEfqjK3iJdFm8jVArX-251" value="memwb_forwarded_write_register" style="edgeLabel;html=1;align=center;verticalAlign=middle;resizable=0;points=[];" parent="cfhEfqjK3iJdFm8jVArX-250" vertex="1" connectable="0">
          <mxGeometry x="0.9591" y="-1" relative="1" as="geometry">
            <mxPoint x="71" as="offset" />
          </mxGeometry>
        </mxCell>
        <mxCell id="cfhEfqjK3iJdFm8jVArX-163" value="write_enable" style="text;html=1;strokeColor=none;fillColor=none;align=center;verticalAlign=middle;whiteSpace=wrap;rounded=0;" parent="1" vertex="1">
          <mxGeometry x="1787.92" y="367.02000000000004" width="60" height="30" as="geometry" />
        </mxCell>
        <mxCell id="cfhEfqjK3iJdFm8jVArX-164" value="write_data" style="text;html=1;strokeColor=none;fillColor=none;align=center;verticalAlign=middle;whiteSpace=wrap;rounded=0;" parent="1" vertex="1">
          <mxGeometry x="1761.94" y="397.0199999999999" width="60" height="30" as="geometry" />
        </mxCell>
        <mxCell id="cfhEfqjK3iJdFm8jVArX-165" value="addr_in" style="text;html=1;strokeColor=none;fillColor=none;align=center;verticalAlign=middle;whiteSpace=wrap;rounded=0;" parent="1" vertex="1">
          <mxGeometry x="1761.94" y="472.22999999999996" width="50" height="30" as="geometry" />
        </mxCell>
        <mxCell id="cfhEfqjK3iJdFm8jVArX-178" style="edgeStyle=orthogonalEdgeStyle;rounded=0;orthogonalLoop=1;jettySize=auto;html=1;entryX=0;entryY=0.5;entryDx=0;entryDy=0;" parent="1" source="cfhEfqjK3iJdFm8jVArX-166" target="cfhEfqjK3iJdFm8jVArX-29" edge="1">
          <mxGeometry relative="1" as="geometry" />
        </mxCell>
        <mxCell id="cfhEfqjK3iJdFm8jVArX-179" value="data_&lt;br&gt;mem_out" style="edgeLabel;html=1;align=center;verticalAlign=middle;resizable=0;points=[];" parent="cfhEfqjK3iJdFm8jVArX-178" vertex="1" connectable="0">
          <mxGeometry x="-0.3101" y="1" relative="1" as="geometry">
            <mxPoint x="7" y="16" as="offset" />
          </mxGeometry>
        </mxCell>
        <mxCell id="cfhEfqjK3iJdFm8jVArX-166" value="data_out" style="text;html=1;strokeColor=none;fillColor=none;align=center;verticalAlign=middle;whiteSpace=wrap;rounded=0;" parent="1" vertex="1">
          <mxGeometry x="1882.3300000000002" y="484.43" width="56.67" height="30" as="geometry" />
        </mxCell>
        <mxCell id="cfhEfqjK3iJdFm8jVArX-213" value="write_data" style="text;html=1;strokeColor=none;fillColor=none;align=center;verticalAlign=middle;whiteSpace=wrap;rounded=0;" parent="1" vertex="1">
          <mxGeometry x="580" y="680" width="60" height="20.25" as="geometry" />
        </mxCell>
        <mxCell id="cfhEfqjK3iJdFm8jVArX-214" value="write_enable" style="text;html=1;strokeColor=none;fillColor=none;align=center;verticalAlign=middle;whiteSpace=wrap;rounded=0;" parent="1" vertex="1">
          <mxGeometry x="640" y="531.24" width="60" height="13.19" as="geometry" />
        </mxCell>
        <mxCell id="cfhEfqjK3iJdFm8jVArX-222" value="" style="endArrow=classic;html=1;rounded=0;entryX=0.013;entryY=0.721;entryDx=0;entryDy=0;entryPerimeter=0;" parent="1" target="cfhEfqjK3iJdFm8jVArX-10" edge="1">
          <mxGeometry width="50" height="50" relative="1" as="geometry">
            <mxPoint x="460" y="680" as="sourcePoint" />
            <mxPoint x="490" y="680" as="targetPoint" />
          </mxGeometry>
        </mxCell>
        <mxCell id="cfhEfqjK3iJdFm8jVArX-224" value="[3:0]" style="edgeLabel;html=1;align=center;verticalAlign=middle;resizable=0;points=[];" parent="cfhEfqjK3iJdFm8jVArX-222" vertex="1" connectable="0">
          <mxGeometry x="-0.3365" relative="1" as="geometry">
            <mxPoint x="6" as="offset" />
          </mxGeometry>
        </mxCell>
        <mxCell id="cfhEfqjK3iJdFm8jVArX-226" value="write_register" style="text;html=1;strokeColor=none;fillColor=none;align=center;verticalAlign=middle;whiteSpace=wrap;rounded=0;" parent="1" vertex="1">
          <mxGeometry x="565" y="660" width="86.7" height="10.25" as="geometry" />
        </mxCell>
        <mxCell id="cfhEfqjK3iJdFm8jVArX-231" value="m&lt;br&gt;u&lt;br&gt;x" style="rounded=1;whiteSpace=wrap;html=1;" parent="1" vertex="1">
          <mxGeometry x="567.5" y="422.59" width="25" height="87.41" as="geometry" />
        </mxCell>
        <mxCell id="cfhEfqjK3iJdFm8jVArX-232" style="edgeStyle=orthogonalEdgeStyle;rounded=0;orthogonalLoop=1;jettySize=auto;html=1;entryX=0;entryY=0.75;entryDx=0;entryDy=0;" parent="1" target="cfhEfqjK3iJdFm8jVArX-231" edge="1">
          <mxGeometry relative="1" as="geometry">
            <mxPoint x="440" y="570" as="sourcePoint" />
            <Array as="points">
              <mxPoint x="450" y="570" />
              <mxPoint x="450" y="470" />
              <mxPoint x="498" y="470" />
              <mxPoint x="498" y="488" />
            </Array>
          </mxGeometry>
        </mxCell>
        <mxCell id="cfhEfqjK3iJdFm8jVArX-233" value="insn[3:0]" style="edgeLabel;html=1;align=center;verticalAlign=middle;resizable=0;points=[];" parent="cfhEfqjK3iJdFm8jVArX-232" vertex="1" connectable="0">
          <mxGeometry x="0.4727" y="3" relative="1" as="geometry">
            <mxPoint x="31" y="-4" as="offset" />
          </mxGeometry>
        </mxCell>
        <mxCell id="cfhEfqjK3iJdFm8jVArX-245" value="idex_reg_a" style="text;html=1;strokeColor=none;fillColor=none;align=center;verticalAlign=middle;whiteSpace=wrap;rounded=0;" parent="1" vertex="1">
          <mxGeometry x="1200" y="810" width="30" height="10" as="geometry" />
        </mxCell>
        <mxCell id="cfhEfqjK3iJdFm8jVArX-246" value="idex_reg_b" style="text;html=1;strokeColor=none;fillColor=none;align=center;verticalAlign=middle;whiteSpace=wrap;rounded=0;" parent="1" vertex="1">
          <mxGeometry x="1200" y="860" width="30" height="10" as="geometry" />
        </mxCell>
        <mxCell id="yGvOkxiand3LqxDzhhp--25" style="edgeStyle=orthogonalEdgeStyle;rounded=0;orthogonalLoop=1;jettySize=auto;html=1;entryX=0.5;entryY=0;entryDx=0;entryDy=0;strokeColor=#FF8000;" parent="1" source="yGvOkxiand3LqxDzhhp--1" target="cfhEfqjK3iJdFm8jVArX-2" edge="1">
          <mxGeometry relative="1" as="geometry" />
        </mxCell>
        <mxCell id="yGvOkxiand3LqxDzhhp--26" value="ifid_write" style="edgeLabel;html=1;align=center;verticalAlign=middle;resizable=0;points=[];" parent="yGvOkxiand3LqxDzhhp--25" vertex="1" connectable="0">
          <mxGeometry x="-0.632" y="1" relative="1" as="geometry">
            <mxPoint x="-2" y="-2" as="offset" />
          </mxGeometry>
        </mxCell>
        <mxCell id="yGvOkxiand3LqxDzhhp--33" style="edgeStyle=orthogonalEdgeStyle;rounded=0;orthogonalLoop=1;jettySize=auto;html=1;entryX=0.5;entryY=0;entryDx=0;entryDy=0;strokeColor=#FF8000;" parent="1" source="yGvOkxiand3LqxDzhhp--1" target="cfhEfqjK3iJdFm8jVArX-4" edge="1">
          <mxGeometry relative="1" as="geometry">
            <Array as="points">
              <mxPoint x="175" y="40" />
            </Array>
            <mxPoint x="202" y="408" as="targetPoint" />
          </mxGeometry>
        </mxCell>
        <mxCell id="yGvOkxiand3LqxDzhhp--34" value="pc_write" style="edgeLabel;html=1;align=center;verticalAlign=middle;resizable=0;points=[];" parent="yGvOkxiand3LqxDzhhp--33" vertex="1" connectable="0">
          <mxGeometry x="0.8698" y="1" relative="1" as="geometry">
            <mxPoint as="offset" />
          </mxGeometry>
        </mxCell>
        <mxCell id="1z0MUqi8JcwUg6FFa3D3-1" value="ctr_sig_sel" style="edgeStyle=orthogonalEdgeStyle;rounded=0;orthogonalLoop=1;jettySize=auto;html=1;entryX=0.5;entryY=0;entryDx=0;entryDy=0;fillColor=#ffe6cc;strokeColor=#FFB570;" parent="1" source="yGvOkxiand3LqxDzhhp--1" target="yGvOkxiand3LqxDzhhp--23" edge="1">
          <mxGeometry relative="1" as="geometry">
            <Array as="points">
              <mxPoint x="640" y="90" />
            </Array>
          </mxGeometry>
        </mxCell>
        <mxCell id="yGvOkxiand3LqxDzhhp--1" value="hazard_dt_unit" style="rounded=1;whiteSpace=wrap;html=1;fillColor=#ffe6cc;strokeColor=#d79b00;" parent="1" vertex="1">
          <mxGeometry x="460" y="21" width="160" height="80" as="geometry" />
        </mxCell>
        <mxCell id="yGvOkxiand3LqxDzhhp--12" value="&lt;span style=&quot;font-size: 11px&quot;&gt;ifid.reg_b&lt;/span&gt;" style="text;html=1;strokeColor=none;fillColor=none;align=center;verticalAlign=middle;whiteSpace=wrap;rounded=0;" parent="1" vertex="1">
          <mxGeometry x="466" y="80" width="42" height="10" as="geometry" />
        </mxCell>
        <mxCell id="yGvOkxiand3LqxDzhhp--16" style="edgeStyle=orthogonalEdgeStyle;rounded=0;orthogonalLoop=1;jettySize=auto;html=1;entryX=1.002;entryY=0.115;entryDx=0;entryDy=0;strokeColor=#FF711F;entryPerimeter=0;" parent="1" source="rMOaj1iCE9mKYqQH6y1h-58" target="yGvOkxiand3LqxDzhhp--1" edge="1">
          <mxGeometry relative="1" as="geometry">
            <mxPoint x="1180" y="100" as="sourcePoint" />
            <mxPoint x="630" y="130" as="targetPoint" />
            <Array as="points">
              <mxPoint x="1170" y="210" />
              <mxPoint x="1170" y="30" />
            </Array>
          </mxGeometry>
        </mxCell>
        <mxCell id="yGvOkxiand3LqxDzhhp--17" value="idex.insn[7:4]" style="edgeLabel;html=1;align=center;verticalAlign=middle;resizable=0;points=[];" parent="yGvOkxiand3LqxDzhhp--16" vertex="1" connectable="0">
          <mxGeometry x="0.8113" y="1" relative="1" as="geometry">
            <mxPoint x="2" as="offset" />
          </mxGeometry>
        </mxCell>
        <mxCell id="yGvOkxiand3LqxDzhhp--18" value="&lt;span style=&quot;font-size: 11px&quot;&gt;idex.reg_b&lt;/span&gt;" style="text;html=1;strokeColor=none;fillColor=none;align=center;verticalAlign=middle;whiteSpace=wrap;rounded=0;" parent="1" vertex="1">
          <mxGeometry x="569.79" y="21" width="42" height="16" as="geometry" />
        </mxCell>
        <mxCell id="yGvOkxiand3LqxDzhhp--23" value="m&lt;br&gt;u&lt;br&gt;x" style="rounded=1;whiteSpace=wrap;html=1;labelBackgroundColor=none;fillColor=#ffe6cc;strokeColor=#d79b00;" parent="1" vertex="1">
          <mxGeometry x="628" y="258" width="24" height="80" as="geometry" />
        </mxCell>
        <mxCell id="yGvOkxiand3LqxDzhhp--24" value="0" style="endArrow=classic;html=1;rounded=0;strokeColor=#FF8000;fillColor=#ffe6cc;" parent="1" edge="1">
          <mxGeometry x="-1" y="-10" width="50" height="50" relative="1" as="geometry">
            <mxPoint x="600" y="320" as="sourcePoint" />
            <mxPoint x="630" y="320" as="targetPoint" />
            <mxPoint x="-10" y="-10" as="offset" />
          </mxGeometry>
        </mxCell>
        <mxCell id="1z0MUqi8JcwUg6FFa3D3-3" value="ifid.insn[11:8]" style="edgeLabel;html=1;align=center;verticalAlign=middle;resizable=0;points=[];" parent="1" vertex="1" connectable="0">
          <mxGeometry x="548.7900000000001" y="130" as="geometry" />
        </mxCell>
        <mxCell id="1z0MUqi8JcwUg6FFa3D3-4" value="&lt;span style=&quot;font-size: 11px&quot;&gt;ifid.reg_a&lt;/span&gt;" style="text;html=1;strokeColor=none;fillColor=none;align=center;verticalAlign=middle;whiteSpace=wrap;rounded=0;" parent="1" vertex="1">
          <mxGeometry x="527.79" y="90" width="42" height="10" as="geometry" />
        </mxCell>
        <mxCell id="PYuLqpD3J3IwYi2mhqxB-4" value="" style="endArrow=classic;html=1;rounded=0;entryX=-0.04;entryY=0.532;entryDx=0;entryDy=0;entryPerimeter=0;" parent="1" target="cfhEfqjK3iJdFm8jVArX-18" edge="1">
          <mxGeometry width="50" height="50" relative="1" as="geometry">
            <mxPoint x="1102.65" y="583" as="sourcePoint" />
            <mxPoint x="1152.65" y="583" as="targetPoint" />
          </mxGeometry>
        </mxCell>
        <mxCell id="PYuLqpD3J3IwYi2mhqxB-5" value="" style="endArrow=classic;html=1;rounded=0;entryX=0.012;entryY=0.796;entryDx=0;entryDy=0;entryPerimeter=0;" parent="1" target="cfhEfqjK3iJdFm8jVArX-18" edge="1">
          <mxGeometry width="50" height="50" relative="1" as="geometry">
            <mxPoint x="1122.65" y="604" as="sourcePoint" />
            <mxPoint x="1152.65" y="604" as="targetPoint" />
          </mxGeometry>
        </mxCell>
        <mxCell id="MGpwRtADwgVNTOVfMMKY-41" style="edgeStyle=orthogonalEdgeStyle;rounded=0;orthogonalLoop=1;jettySize=auto;html=1;entryX=1;entryY=0;entryDx=0;entryDy=0;strokeColor=#97D077;" parent="1" source="MGpwRtADwgVNTOVfMMKY-7" target="cfhEfqjK3iJdFm8jVArX-7" edge="1">
          <mxGeometry relative="1" as="geometry">
            <Array as="points">
              <mxPoint x="970" y="240" />
              <mxPoint x="555" y="240" />
            </Array>
          </mxGeometry>
        </mxCell>
        <mxCell id="MGpwRtADwgVNTOVfMMKY-7" value="xor_com" style="ellipse;whiteSpace=wrap;html=1;fillColor=#d5e8d4;strokeColor=#82b366;" parent="1" vertex="1">
          <mxGeometry x="930" y="585" width="90" height="61.59" as="geometry" />
        </mxCell>
        <mxCell id="MGpwRtADwgVNTOVfMMKY-15" style="edgeStyle=orthogonalEdgeStyle;rounded=0;orthogonalLoop=1;jettySize=auto;html=1;entryX=0;entryY=0.5;entryDx=0;entryDy=0;strokeColor=#97D077;" parent="1" source="MGpwRtADwgVNTOVfMMKY-10" target="cfhEfqjK3iJdFm8jVArX-4" edge="1">
          <mxGeometry relative="1" as="geometry">
            <Array as="points">
              <mxPoint x="280" y="223" />
              <mxPoint x="280" y="70" />
              <mxPoint x="130" y="70" />
              <mxPoint x="130" y="570" />
            </Array>
          </mxGeometry>
        </mxCell>
        <mxCell id="MGpwRtADwgVNTOVfMMKY-10" value="m&lt;br&gt;u&lt;br&gt;x" style="rounded=1;whiteSpace=wrap;html=1;fillColor=#d5e8d4;strokeColor=#82b366;" parent="1" vertex="1">
          <mxGeometry x="228" y="188" width="24" height="70" as="geometry" />
        </mxCell>
        <mxCell id="MGpwRtADwgVNTOVfMMKY-16" value="branch_&lt;br&gt;adder" style="verticalLabelPosition=middle;verticalAlign=middle;html=1;shape=trapezoid;perimeter=trapezoidPerimeter;whiteSpace=wrap;size=0.23;arcSize=10;flipV=1;labelPosition=center;align=center;rotation=0;flipH=1;direction=north;fillColor=#d5e8d4;strokeColor=#82b366;" parent="1" vertex="1">
          <mxGeometry x="720" y="338" width="55.47" height="96" as="geometry" />
        </mxCell>
        <mxCell id="MGpwRtADwgVNTOVfMMKY-34" style="edgeStyle=orthogonalEdgeStyle;rounded=0;orthogonalLoop=1;jettySize=auto;html=1;entryX=0.016;entryY=0.418;entryDx=0;entryDy=0;strokeColor=#97D077;entryPerimeter=0;" parent="1" source="MGpwRtADwgVNTOVfMMKY-25" target="MGpwRtADwgVNTOVfMMKY-7" edge="1">
          <mxGeometry relative="1" as="geometry" />
        </mxCell>
        <mxCell id="MGpwRtADwgVNTOVfMMKY-25" value="m&lt;br&gt;u&lt;br&gt;x" style="rounded=1;whiteSpace=wrap;html=1;fillColor=#d5e8d4;strokeColor=#82b366;" parent="1" vertex="1">
          <mxGeometry x="840" y="555" width="24" height="60" as="geometry" />
        </mxCell>
        <mxCell id="MGpwRtADwgVNTOVfMMKY-35" style="edgeStyle=orthogonalEdgeStyle;rounded=0;orthogonalLoop=1;jettySize=auto;html=1;entryX=0.023;entryY=0.642;entryDx=0;entryDy=0;strokeColor=#97D077;entryPerimeter=0;" parent="1" source="MGpwRtADwgVNTOVfMMKY-26" target="MGpwRtADwgVNTOVfMMKY-7" edge="1">
          <mxGeometry relative="1" as="geometry" />
        </mxCell>
        <mxCell id="MGpwRtADwgVNTOVfMMKY-26" value="m&lt;br&gt;u&lt;br&gt;x" style="rounded=1;whiteSpace=wrap;html=1;fillColor=#d5e8d4;strokeColor=#82b366;" parent="1" vertex="1">
          <mxGeometry x="840" y="632.5900000000001" width="24" height="60" as="geometry" />
        </mxCell>
        <mxCell id="MGpwRtADwgVNTOVfMMKY-52" style="edgeStyle=orthogonalEdgeStyle;rounded=0;orthogonalLoop=1;jettySize=auto;html=1;entryX=0.5;entryY=1;entryDx=0;entryDy=0;strokeColor=#97D077;" parent="1" source="MGpwRtADwgVNTOVfMMKY-40" target="MGpwRtADwgVNTOVfMMKY-26" edge="1">
          <mxGeometry relative="1" as="geometry">
            <Array as="points">
              <mxPoint x="852" y="770" />
              <mxPoint x="852" y="770" />
            </Array>
          </mxGeometry>
        </mxCell>
        <mxCell id="MGpwRtADwgVNTOVfMMKY-55" value="forwarding&lt;br&gt;_br_ctrlt" style="edgeLabel;html=1;align=center;verticalAlign=middle;resizable=0;points=[];" parent="MGpwRtADwgVNTOVfMMKY-52" vertex="1" connectable="0">
          <mxGeometry x="-0.6446" relative="1" as="geometry">
            <mxPoint x="-22" y="-3" as="offset" />
          </mxGeometry>
        </mxCell>
        <mxCell id="MGpwRtADwgVNTOVfMMKY-53" style="edgeStyle=orthogonalEdgeStyle;rounded=0;orthogonalLoop=1;jettySize=auto;html=1;entryX=0.5;entryY=1;entryDx=0;entryDy=0;strokeColor=#97D077;" parent="1" source="MGpwRtADwgVNTOVfMMKY-40" target="MGpwRtADwgVNTOVfMMKY-25" edge="1">
          <mxGeometry relative="1" as="geometry">
            <Array as="points">
              <mxPoint x="890" y="630" />
              <mxPoint x="852" y="630" />
            </Array>
          </mxGeometry>
        </mxCell>
        <mxCell id="MGpwRtADwgVNTOVfMMKY-54" value="forwarding&lt;br&gt;_br_ctrls" style="edgeLabel;html=1;align=center;verticalAlign=middle;resizable=0;points=[];" parent="MGpwRtADwgVNTOVfMMKY-53" vertex="1" connectable="0">
          <mxGeometry x="-0.8646" y="-1" relative="1" as="geometry">
            <mxPoint y="-6" as="offset" />
          </mxGeometry>
        </mxCell>
        <mxCell id="MGpwRtADwgVNTOVfMMKY-40" value="forwarding_br_unit" style="rounded=1;whiteSpace=wrap;html=1;fillColor=#d5e8d4;strokeColor=#82b366;" parent="1" vertex="1">
          <mxGeometry x="790.0000000000001" y="790" width="145" height="80" as="geometry" />
        </mxCell>
        <mxCell id="MGpwRtADwgVNTOVfMMKY-45" value="" style="endArrow=classic;html=1;rounded=0;strokeColor=#97D077;" parent="1" edge="1">
          <mxGeometry width="50" height="50" relative="1" as="geometry">
            <mxPoint x="800" y="665" as="sourcePoint" />
            <mxPoint x="840" y="664.66" as="targetPoint" />
          </mxGeometry>
        </mxCell>
        <mxCell id="MGpwRtADwgVNTOVfMMKY-46" value="" style="endArrow=classic;html=1;rounded=0;strokeColor=#97D077;entryX=0;entryY=0.75;entryDx=0;entryDy=0;exitX=1.033;exitY=0.648;exitDx=0;exitDy=0;exitPerimeter=0;" parent="1" source="rMOaj1iCE9mKYqQH6y1h-25" target="MGpwRtADwgVNTOVfMMKY-25" edge="1">
          <mxGeometry width="50" height="50" relative="1" as="geometry">
            <mxPoint x="1810" y="850" as="sourcePoint" />
            <mxPoint x="1070" y="970" as="targetPoint" />
            <Array as="points">
              <mxPoint x="1730" y="580" />
              <mxPoint x="1730" y="960" />
              <mxPoint x="770" y="960" />
              <mxPoint x="770" y="750" />
              <mxPoint x="800" y="750" />
              <mxPoint x="800" y="600" />
            </Array>
          </mxGeometry>
        </mxCell>
        <mxCell id="MGpwRtADwgVNTOVfMMKY-47" value="ex_result" style="edgeLabel;html=1;align=center;verticalAlign=middle;resizable=0;points=[];" parent="MGpwRtADwgVNTOVfMMKY-46" vertex="1" connectable="0">
          <mxGeometry x="0.9091" relative="1" as="geometry">
            <mxPoint y="-55" as="offset" />
          </mxGeometry>
        </mxCell>
        <mxCell id="MHF9BdTZzUUuF50jZyKs-3" value="" style="endArrow=classic;html=1;rounded=0;shadow=0;strokeColor=#FF711F;exitX=1;exitY=0.5;exitDx=0;exitDy=0;entryX=0.829;entryY=0.987;entryDx=0;entryDy=0;entryPerimeter=0;" parent="1" source="cfhEfqjK3iJdFm8jVArX-7" target="yGvOkxiand3LqxDzhhp--1" edge="1">
          <mxGeometry width="50" height="50" relative="1" as="geometry">
            <mxPoint x="710" y="250" as="sourcePoint" />
            <mxPoint x="760" y="200" as="targetPoint" />
            <Array as="points">
              <mxPoint x="593" y="296" />
            </Array>
          </mxGeometry>
        </mxCell>
        <mxCell id="MHF9BdTZzUUuF50jZyKs-4" value="ifid_beq" style="edgeLabel;html=1;align=center;verticalAlign=middle;resizable=0;points=[];" parent="MHF9BdTZzUUuF50jZyKs-3" vertex="1" connectable="0">
          <mxGeometry x="-0.0469" relative="1" as="geometry">
            <mxPoint as="offset" />
          </mxGeometry>
        </mxCell>
        <mxCell id="FoXIpUmqEEeSf2nbtVqf-3" value="" style="endArrow=classic;html=1;rounded=0;entryX=0.5;entryY=1;entryDx=0;entryDy=0;strokeColor=#FF0000;" parent="1" edge="1">
          <mxGeometry width="50" height="50" relative="1" as="geometry">
            <mxPoint x="710.79" y="1120.25" as="sourcePoint" />
            <mxPoint x="709.9950000000001" y="700.25" as="targetPoint" />
          </mxGeometry>
        </mxCell>
        <mxCell id="FoXIpUmqEEeSf2nbtVqf-6" value="tag" style="edgeLabel;html=1;align=center;verticalAlign=middle;resizable=0;points=[];" parent="FoXIpUmqEEeSf2nbtVqf-3" vertex="1" connectable="0">
          <mxGeometry x="-0.9623" y="-2" relative="1" as="geometry">
            <mxPoint x="-3" y="8" as="offset" />
          </mxGeometry>
        </mxCell>
        <mxCell id="FoXIpUmqEEeSf2nbtVqf-4" value="..." style="text;html=1;strokeColor=none;fillColor=none;align=center;verticalAlign=middle;whiteSpace=wrap;rounded=0;" parent="1" vertex="1">
          <mxGeometry x="635" y="1100" width="60" height="30" as="geometry" />
        </mxCell>
        <mxCell id="FoXIpUmqEEeSf2nbtVqf-5" value="..." style="text;html=1;strokeColor=none;fillColor=none;align=center;verticalAlign=middle;whiteSpace=wrap;rounded=0;" parent="1" vertex="1">
          <mxGeometry x="635" y="689.59" width="60" height="30" as="geometry" />
        </mxCell>
        <mxCell id="FoXIpUmqEEeSf2nbtVqf-24" value="" style="endArrow=classic;html=1;rounded=0;fontSize=42;strokeColor=#FF0000;exitX=0.037;exitY=1.005;exitDx=0;exitDy=0;exitPerimeter=0;" parent="1" edge="1">
          <mxGeometry width="50" height="50" relative="1" as="geometry">
            <mxPoint x="129.90999999999985" y="1102.4399999999996" as="sourcePoint" />
            <mxPoint x="570" y="620" as="targetPoint" />
            <Array as="points">
              <mxPoint x="130" y="960" />
              <mxPoint x="440" y="960" />
              <mxPoint x="440" y="620" />
            </Array>
          </mxGeometry>
        </mxCell>
        <mxCell id="FoXIpUmqEEeSf2nbtVqf-28" value="send" style="edgeLabel;html=1;align=center;verticalAlign=middle;resizable=0;points=[];fontSize=11;" parent="FoXIpUmqEEeSf2nbtVqf-24" vertex="1" connectable="0">
          <mxGeometry x="-0.9738" relative="1" as="geometry">
            <mxPoint y="20" as="offset" />
          </mxGeometry>
        </mxCell>
        <mxCell id="rMOaj1iCE9mKYqQH6y1h-34" style="edgeStyle=orthogonalEdgeStyle;rounded=0;orthogonalLoop=1;jettySize=auto;html=1;entryX=0;entryY=0.34;entryDx=0;entryDy=0;entryPerimeter=0;" parent="1" source="rMOaj1iCE9mKYqQH6y1h-1" target="rMOaj1iCE9mKYqQH6y1h-8" edge="1">
          <mxGeometry relative="1" as="geometry">
            <Array as="points">
              <mxPoint x="1430" y="199" />
              <mxPoint x="1430" y="210" />
            </Array>
          </mxGeometry>
        </mxCell>
        <mxCell id="rMOaj1iCE9mKYqQH6y1h-1" value="rotate_left&lt;br&gt;_shifter" style="ellipse;whiteSpace=wrap;html=1;" parent="1" vertex="1">
          <mxGeometry x="1322.65" y="170.34" width="85.29" height="58" as="geometry" />
        </mxCell>
        <mxCell id="rMOaj1iCE9mKYqQH6y1h-35" style="edgeStyle=orthogonalEdgeStyle;rounded=0;orthogonalLoop=1;jettySize=auto;html=1;" parent="1" source="rMOaj1iCE9mKYqQH6y1h-4" target="rMOaj1iCE9mKYqQH6y1h-8" edge="1">
          <mxGeometry relative="1" as="geometry">
            <Array as="points">
              <mxPoint x="1430" y="266" />
              <mxPoint x="1430" y="223" />
            </Array>
          </mxGeometry>
        </mxCell>
        <mxCell id="rMOaj1iCE9mKYqQH6y1h-4" value="right_shifter" style="ellipse;whiteSpace=wrap;html=1;" parent="1" vertex="1">
          <mxGeometry x="1331.26" y="240" width="71.17" height="51.66" as="geometry" />
        </mxCell>
        <mxCell id="rMOaj1iCE9mKYqQH6y1h-36" style="edgeStyle=orthogonalEdgeStyle;rounded=0;orthogonalLoop=1;jettySize=auto;html=1;entryX=0;entryY=0.75;entryDx=0;entryDy=0;" parent="1" source="rMOaj1iCE9mKYqQH6y1h-5" target="rMOaj1iCE9mKYqQH6y1h-8" edge="1">
          <mxGeometry relative="1" as="geometry">
            <Array as="points">
              <mxPoint x="1440" y="327" />
              <mxPoint x="1440" y="243" />
            </Array>
          </mxGeometry>
        </mxCell>
        <mxCell id="rMOaj1iCE9mKYqQH6y1h-5" value="left_shifter" style="ellipse;whiteSpace=wrap;html=1;" parent="1" vertex="1">
          <mxGeometry x="1330.7399999999998" y="300.5" width="72.2" height="52" as="geometry" />
        </mxCell>
        <mxCell id="rMOaj1iCE9mKYqQH6y1h-33" style="edgeStyle=orthogonalEdgeStyle;rounded=0;orthogonalLoop=1;jettySize=auto;html=1;entryX=0.02;entryY=0.156;entryDx=0;entryDy=0;entryPerimeter=0;" parent="1" source="cfhEfqjK3iJdFm8jVArX-28" target="rMOaj1iCE9mKYqQH6y1h-8" edge="1">
          <mxGeometry relative="1" as="geometry" />
        </mxCell>
        <mxCell id="cfhEfqjK3iJdFm8jVArX-28" value="rotate_right&lt;br&gt;_shifter" style="ellipse;whiteSpace=wrap;html=1;" parent="1" vertex="1">
          <mxGeometry x="1322.6499999999999" y="108.34" width="85.29" height="58" as="geometry" />
        </mxCell>
        <mxCell id="rMOaj1iCE9mKYqQH6y1h-38" style="edgeStyle=orthogonalEdgeStyle;rounded=0;orthogonalLoop=1;jettySize=auto;html=1;entryX=0;entryY=0.25;entryDx=0;entryDy=0;" parent="1" source="rMOaj1iCE9mKYqQH6y1h-8" target="rMOaj1iCE9mKYqQH6y1h-37" edge="1">
          <mxGeometry relative="1" as="geometry" />
        </mxCell>
        <mxCell id="rMOaj1iCE9mKYqQH6y1h-8" value="m&lt;br&gt;u&lt;br&gt;x" style="rounded=1;whiteSpace=wrap;html=1;" parent="1" vertex="1">
          <mxGeometry x="1470" y="182.5" width="24" height="81" as="geometry" />
        </mxCell>
        <mxCell id="rMOaj1iCE9mKYqQH6y1h-64" style="edgeStyle=orthogonalEdgeStyle;rounded=0;orthogonalLoop=1;jettySize=auto;html=1;entryX=0;entryY=0.75;entryDx=0;entryDy=0;" parent="1" source="rMOaj1iCE9mKYqQH6y1h-25" target="cfhEfqjK3iJdFm8jVArX-14" edge="1">
          <mxGeometry relative="1" as="geometry">
            <Array as="points">
              <mxPoint x="1750" y="560" />
              <mxPoint x="1750" y="970" />
              <mxPoint x="1120" y="970" />
              <mxPoint x="1120" y="448" />
            </Array>
          </mxGeometry>
        </mxCell>
        <mxCell id="rMOaj1iCE9mKYqQH6y1h-65" value="ex_result" style="edgeLabel;html=1;align=center;verticalAlign=middle;resizable=0;points=[];" parent="rMOaj1iCE9mKYqQH6y1h-64" vertex="1" connectable="0">
          <mxGeometry x="-0.9723" y="1" relative="1" as="geometry">
            <mxPoint x="17" y="-4" as="offset" />
          </mxGeometry>
        </mxCell>
        <mxCell id="rMOaj1iCE9mKYqQH6y1h-76" value="ex_result" style="edgeLabel;html=1;align=center;verticalAlign=middle;resizable=0;points=[];" parent="rMOaj1iCE9mKYqQH6y1h-64" vertex="1" connectable="0">
          <mxGeometry x="0.968" y="-3" relative="1" as="geometry">
            <mxPoint x="-8" as="offset" />
          </mxGeometry>
        </mxCell>
        <mxCell id="rMOaj1iCE9mKYqQH6y1h-25" value="ex-mem" style="rounded=0;whiteSpace=wrap;html=1;" parent="1" vertex="1">
          <mxGeometry x="1640" y="118" width="30" height="712" as="geometry" />
        </mxCell>
        <mxCell id="rMOaj1iCE9mKYqQH6y1h-37" value="m&lt;br&gt;u&lt;br&gt;x" style="rounded=1;whiteSpace=wrap;html=1;" parent="1" vertex="1">
          <mxGeometry x="1540" y="367.41" width="24" height="81" as="geometry" />
        </mxCell>
        <mxCell id="rMOaj1iCE9mKYqQH6y1h-43" value="" style="endArrow=classic;html=1;rounded=0;entryX=0.032;entryY=0.339;entryDx=0;entryDy=0;entryPerimeter=0;" parent="1" target="rMOaj1iCE9mKYqQH6y1h-1" edge="1">
          <mxGeometry width="50" height="50" relative="1" as="geometry">
            <mxPoint x="1220" y="190" as="sourcePoint" />
            <mxPoint x="1320" y="190" as="targetPoint" />
          </mxGeometry>
        </mxCell>
        <mxCell id="rMOaj1iCE9mKYqQH6y1h-44" value="" style="endArrow=classic;html=1;rounded=0;entryX=0.044;entryY=0.683;entryDx=0;entryDy=0;entryPerimeter=0;" parent="1" target="rMOaj1iCE9mKYqQH6y1h-1" edge="1">
          <mxGeometry width="50" height="50" relative="1" as="geometry">
            <mxPoint x="1250" y="210" as="sourcePoint" />
            <mxPoint x="1322.65" y="210" as="targetPoint" />
          </mxGeometry>
        </mxCell>
        <mxCell id="rMOaj1iCE9mKYqQH6y1h-47" value="" style="endArrow=classic;html=1;rounded=0;" parent="1" edge="1">
          <mxGeometry width="50" height="50" relative="1" as="geometry">
            <mxPoint x="1219.4" y="263.5" as="sourcePoint" />
            <mxPoint x="1330" y="264" as="targetPoint" />
          </mxGeometry>
        </mxCell>
        <mxCell id="rMOaj1iCE9mKYqQH6y1h-49" value="" style="endArrow=classic;html=1;rounded=0;entryX=0.068;entryY=0.774;entryDx=0;entryDy=0;entryPerimeter=0;" parent="1" target="rMOaj1iCE9mKYqQH6y1h-4" edge="1">
          <mxGeometry width="50" height="50" relative="1" as="geometry">
            <mxPoint x="1250" y="280" as="sourcePoint" />
            <mxPoint x="1330.7427599999999" y="280.00399999999973" as="targetPoint" />
          </mxGeometry>
        </mxCell>
        <mxCell id="rMOaj1iCE9mKYqQH6y1h-50" value="" style="endArrow=classic;html=1;rounded=0;" parent="1" edge="1">
          <mxGeometry width="50" height="50" relative="1" as="geometry">
            <mxPoint x="1220.14" y="320" as="sourcePoint" />
            <mxPoint x="1330.74" y="320.5" as="targetPoint" />
          </mxGeometry>
        </mxCell>
        <mxCell id="rMOaj1iCE9mKYqQH6y1h-51" value="" style="endArrow=classic;html=1;rounded=0;entryX=0.068;entryY=0.774;entryDx=0;entryDy=0;entryPerimeter=0;" parent="1" edge="1">
          <mxGeometry width="50" height="50" relative="1" as="geometry">
            <mxPoint x="1249.6" y="337.62" as="sourcePoint" />
            <mxPoint x="1335.69956" y="337.60483999999985" as="targetPoint" />
          </mxGeometry>
        </mxCell>
        <mxCell id="rMOaj1iCE9mKYqQH6y1h-54" style="edgeStyle=orthogonalEdgeStyle;rounded=0;orthogonalLoop=1;jettySize=auto;html=1;entryX=-0.018;entryY=0.417;entryDx=0;entryDy=0;entryPerimeter=0;" parent="1" source="rMOaj1iCE9mKYqQH6y1h-52" target="rMOaj1iCE9mKYqQH6y1h-25" edge="1">
          <mxGeometry relative="1" as="geometry" />
        </mxCell>
        <mxCell id="rMOaj1iCE9mKYqQH6y1h-52" value="&lt;span style=&quot;color: rgb(0 , 0 , 0) ; font-family: &amp;#34;helvetica&amp;#34; ; font-size: 12px ; font-style: normal ; font-weight: 400 ; letter-spacing: normal ; text-align: center ; text-indent: 0px ; text-transform: none ; word-spacing: 0px ; background-color: rgb(248 , 249 , 250) ; display: inline ; float: none&quot;&gt;mux_ex_result&lt;/span&gt;" style="text;whiteSpace=wrap;html=1;rotation=90;" parent="1" vertex="1">
          <mxGeometry x="1518.63" y="399.67" width="110" height="30" as="geometry" />
        </mxCell>
        <mxCell id="rMOaj1iCE9mKYqQH6y1h-57" value="mem-wb" style="rounded=0;whiteSpace=wrap;html=1;" parent="1" vertex="1">
          <mxGeometry x="2360" y="118" width="30" height="712" as="geometry" />
        </mxCell>
        <mxCell id="rMOaj1iCE9mKYqQH6y1h-67" value="&lt;span style=&quot;color: rgb(0 , 0 , 0) ; font-family: &amp;#34;helvetica&amp;#34; ; font-size: 11px ; font-style: normal ; font-weight: 400 ; letter-spacing: normal ; text-align: center ; text-indent: 0px ; text-transform: none ; word-spacing: 0px ; background-color: rgb(255 , 255 , 255) ; display: inline ; float: none&quot;&gt;idex_forwarded_write_register&lt;/span&gt;" style="edgeStyle=orthogonalEdgeStyle;rounded=0;orthogonalLoop=1;jettySize=auto;html=1;strokeColor=#FF8000;" parent="1" source="rMOaj1iCE9mKYqQH6y1h-58" target="yGvOkxiand3LqxDzhhp--1" edge="1">
          <mxGeometry relative="1" as="geometry">
            <Array as="points">
              <mxPoint x="1130" y="170" />
              <mxPoint x="1130" y="61" />
            </Array>
          </mxGeometry>
        </mxCell>
        <mxCell id="rMOaj1iCE9mKYqQH6y1h-69" style="edgeStyle=orthogonalEdgeStyle;rounded=0;orthogonalLoop=1;jettySize=auto;html=1;strokeColor=#FF8000;" parent="1" source="rMOaj1iCE9mKYqQH6y1h-58" target="yGvOkxiand3LqxDzhhp--1" edge="1">
          <mxGeometry relative="1" as="geometry">
            <Array as="points">
              <mxPoint x="1150" y="190" />
              <mxPoint x="1150" y="50" />
            </Array>
          </mxGeometry>
        </mxCell>
        <mxCell id="rMOaj1iCE9mKYqQH6y1h-70" value="idex_ctrl_beq_op" style="edgeLabel;html=1;align=center;verticalAlign=middle;resizable=0;points=[];" parent="rMOaj1iCE9mKYqQH6y1h-69" vertex="1" connectable="0">
          <mxGeometry x="-0.1563" y="-1" relative="1" as="geometry">
            <mxPoint x="-96" as="offset" />
          </mxGeometry>
        </mxCell>
        <mxCell id="rMOaj1iCE9mKYqQH6y1h-78" value="insn" style="edgeStyle=orthogonalEdgeStyle;rounded=0;orthogonalLoop=1;jettySize=auto;html=1;strokeColor=#000000;" parent="1" source="rMOaj1iCE9mKYqQH6y1h-58" target="cfhEfqjK3iJdFm8jVArX-33" edge="1">
          <mxGeometry x="0.3283" relative="1" as="geometry">
            <Array as="points">
              <mxPoint x="1140" y="730" />
              <mxPoint x="1140" y="820" />
            </Array>
            <mxPoint as="offset" />
          </mxGeometry>
        </mxCell>
        <mxCell id="rMOaj1iCE9mKYqQH6y1h-58" value="id-ex" style="rounded=0;whiteSpace=wrap;html=1;" parent="1" vertex="1">
          <mxGeometry x="1050" y="118" width="30" height="712" as="geometry" />
        </mxCell>
        <mxCell id="rMOaj1iCE9mKYqQH6y1h-80" value="" style="endArrow=classic;html=1;rounded=0;strokeColor=#000000;entryX=0;entryY=0.75;entryDx=0;entryDy=0;" parent="1" target="cfhEfqjK3iJdFm8jVArX-33" edge="1">
          <mxGeometry width="50" height="50" relative="1" as="geometry">
            <mxPoint x="1140" y="820" as="sourcePoint" />
            <mxPoint x="1180" y="840" as="targetPoint" />
            <Array as="points">
              <mxPoint x="1140" y="860" />
            </Array>
          </mxGeometry>
        </mxCell>
        <mxCell id="rMOaj1iCE9mKYqQH6y1h-81" value="" style="endArrow=classic;html=1;rounded=0;strokeColor=#FF0000;entryX=0.5;entryY=1;entryDx=0;entryDy=0;" parent="1" target="cfhEfqjK3iJdFm8jVArX-1" edge="1">
          <mxGeometry width="50" height="50" relative="1" as="geometry">
            <mxPoint x="300" y="960" as="sourcePoint" />
            <mxPoint x="320" y="740" as="targetPoint" />
          </mxGeometry>
        </mxCell>
        <mxCell id="rMOaj1iCE9mKYqQH6y1h-82" value="" style="endArrow=classic;html=1;rounded=0;strokeColor=#FF0000;entryX=0.5;entryY=1;entryDx=0;entryDy=0;" parent="1" target="cfhEfqjK3iJdFm8jVArX-4" edge="1">
          <mxGeometry width="50" height="50" relative="1" as="geometry">
            <mxPoint x="175" y="960" as="sourcePoint" />
            <mxPoint x="170" y="730" as="targetPoint" />
          </mxGeometry>
        </mxCell>
      </root>
    </mxGraphModel>
  </diagram>
</mxfile>
